<?xml version="1.0" encoding="utf-8"?>
<!-- Generator: Adobe Illustrator 18.0.0, SVG Export Plug-In . SVG Version: 6.00 Build 0)  -->
<!DOCTYPE svg PUBLIC "-//W3C//DTD SVG 1.1//EN" "http://www.w3.org/Graphics/SVG/1.1/DTD/svg11.dtd">
<svg version="1.1" id="Ebene_1" xmlns="http://www.w3.org/2000/svg" xmlns:xlink="http://www.w3.org/1999/xlink" x="0px" y="0px"
	 viewBox="0 0 300 31" enable-background="new 0 0 300 31" xml:space="preserve">
<g>
	<path fill="#F8AB25" d="M9.9,28.9H5.8l-4.4-22h4.3l2.1,14.5l2-14.5H14L9.9,28.9z"/>
	<path fill="#F8AB25" d="M26.5,27.9c-1.3,1.2-3.1,1.5-4.8,1.5c-1.6,0-3.3-0.2-4.6-1.3c-0.7-0.5-1-1.1-1.1-1.4
		c-0.4-0.8-0.5-1.7-0.5-2.5V11.9c0-0.5-0.1-2.7,1.4-4c0.8-0.7,2.3-1.4,4.8-1.4c3.2,0,4.9,1.3,5.5,2.6c0.3,0.7,0.5,1.4,0.5,2.9v12.2
		C27.8,25.6,27.5,26.9,26.5,27.9z M23.7,12.3c0-0.1,0.1-1.1-0.2-1.8c-0.2-0.4-0.7-1-1.7-1c-0.2,0-0.8,0-1.3,0.4
		c-0.9,0.6-0.8,1.6-0.8,2.5v11.1c0,0.7,0,1.5,0.4,2c0.5,0.7,1.5,0.7,1.6,0.7s0.8,0,1.3-0.4c0.7-0.5,0.7-1.4,0.7-2.2V12.3z"/>
	<path fill="#F8AB25" d="M42.2,26.4c-1.1,3.1-5.1,3-5.6,3c-0.9,0-1.8-0.2-2.1-0.2c-1.6-0.3-3.1-1-3.7-2.6c-0.3-0.8-0.3-1.5-0.3-2.3
		v-12c0-0.4,0-0.8,0.1-1.2c0.1-1.4,0.4-2.5,1.6-3.4C33,7,34.2,6.5,36.7,6.5c1.4,0,2.9,0.2,4.1,1c0.6,0.4,1.1,1,1.4,1.6
		c0.3,0.7,0.4,1.2,0.4,2.5v3.4h-4v-2.8c0-1.7-0.3-2.6-2.1-2.6c-1.6,0-1.9,1-1.9,2.4v11.8c0,1.4,0.3,2.5,2,2.5c1.8,0,2-1,2-2.7v-2.9
		h4v3.1C42.5,24.7,42.5,25.6,42.2,26.4z"/>
	<path fill="#F8AB25" d="M45,28.9v-22h10.6v3.3H49v5.2h6.2v3.3H49v6.8h6.9v3.4H45z M51.2,5.2l-1.4-2.3l-1.5,2.3h-3.2l2.7-4.1h4
		l2.7,4.1H51.2z"/>
	<path fill="#F8AB25" d="M65.1,28.9v-22h10.6v3.3h-6.6v5.2h6.2v3.3h-6.2v6.8H76v3.4H65.1z M70.9,5.2h-2.9L70,1h4.8L70.9,5.2z"/>
	<path fill="#F8AB25" d="M99.4,28.9l0.4-19.1l-3.5,19.1h-3.8L88.9,9.9l0.3,19.1h-4v-22h6.6l2.6,15.4L97,6.9h6.5v22H99.4z"/>
	<path fill="#F8AB25" d="M114.3,28.9l-0.5-3.6H110l-0.6,3.6h-4l4.3-22h4.6l4.1,22H114.3z M112,12.5l-1.5,9.4h2.8L112,12.5z"/>
	<path fill="#F8AB25" d="M120.2,28.9v-22h4v22H120.2z"/>
	<path fill="#F8AB25" d="M138,27.9c-1.3,1.2-3.1,1.5-4.8,1.5c-1.6,0-3.3-0.2-4.6-1.3c-0.7-0.5-1-1.1-1.1-1.4
		c-0.4-0.8-0.5-1.7-0.5-2.5V11.9c0-0.5-0.1-2.7,1.4-4c0.8-0.7,2.3-1.4,4.8-1.4c3.2,0,4.9,1.3,5.5,2.6c0.3,0.7,0.5,1.4,0.5,2.9v12.2
		C139.3,25.6,139.1,26.9,138,27.9z M135.2,12.3c0-0.1,0.1-1.1-0.2-1.8c-0.2-0.4-0.7-1-1.7-1c-0.2,0-0.8,0-1.3,0.4
		c-0.9,0.6-0.8,1.6-0.8,2.5v11.1c0,0.7,0,1.5,0.4,2c0.5,0.7,1.5,0.7,1.6,0.7s0.8,0,1.3-0.4c0.7-0.5,0.7-1.4,0.7-2.2V12.3z"/>
	<path fill="#F8AB25" d="M150.9,28.9l-3.1-9.7h-1.5v9.7h-4v-22h8.1c2.7,0,4,1.2,4,3.9v4c0,2.2-0.7,3.2-2.6,3.8l3.4,10.3H150.9z
		 M150.3,11.9c0-1.4-0.5-1.8-1.9-1.8h-2.1v5.9h2.1c1.4,0,1.9-0.5,1.9-2.1V11.9z"/>
	<path fill="#F8AB25" d="M176.3,24.2c-0.1,2.3-1.2,3.5-2.1,4c-1.1,0.7-2.3,0.7-3.5,0.7h-6.5v-22h7.4c0.6,0,1.8,0.1,3,1.1
		c1.5,1.3,1.6,2.9,1.6,4.7V23C176.4,23.4,176.4,23.8,176.3,24.2z M172.3,12.4c0-0.7,0-1.4-0.6-1.9c-0.5-0.4-1.2-0.4-1.8-0.4h-1.6
		v15.6h1.4c0.4,0,0.8,0,1.2-0.1c1.3-0.2,1.4-1.2,1.4-2.3V12.4z"/>
	<path fill="#F8AB25" d="M179.2,28.9v-22h10.6v3.3h-6.6v5.2h6.2v3.3h-6.2v6.8h6.9v3.4H179.2z"/>
	<path fill="#F8AB25" d="M202.4,28.9V13.1c-0.2,0.1-0.3,0.2-0.5,0.4c-0.4,0.2-1.3,0.7-2.6,0.9l0-2.9c0.2-0.1,0.4-0.1,0.7-0.2
		c0.3-0.1,1.6-0.8,2.5-1.7c0.4-0.4,0.5-0.6,1.1-1.4h2.4v20.7H202.4z"/>
	<path fill="#F8AB25" d="M220.2,27.9c-1.5,1.3-3.2,1.3-3.9,1.3c-2.9,0-4.4-1.3-4.9-2.6c-0.2-0.5-0.4-1.1-0.4-2.2v-2.6
		c0-0.8,0-1.1,0.1-1.5c0.3-1.4,1.1-1.9,2.3-2.5c0,0-0.7-0.3-1-0.6c-1.2-0.9-1.1-2.3-1.1-2.7v-2.2c0-1.1,0.1-2,0.8-2.9
		c0.3-0.4,0.7-0.7,1.1-0.9c1.2-0.7,2.8-0.7,3.1-0.7c2.8,0,4.2,1.2,4.7,2.4c0.2,0.5,0.3,1.1,0.3,2.2v1.8c0,1.2-0.1,1.6-0.4,2.1
		c-0.3,0.6-0.7,0.9-1.8,1.4c0.8,0.3,1.2,0.6,1.5,0.8c0.8,0.7,0.9,1.6,0.9,2.6v2.8C221.4,25.6,221.3,26.8,220.2,27.9z M217.9,21.2
		c0-0.7,0-1.3-0.6-1.7c-0.4-0.3-0.9-0.3-1-0.3c-1.8,0-1.7,1.6-1.7,2.1v2.9c0,1.2,0.3,1.7,0.8,2c0.3,0.2,0.6,0.2,0.9,0.2
		c0.2,0,0.6,0,1-0.2c0.7-0.4,0.7-1.1,0.7-1.8V21.2z M217.8,12.5c0-0.6-0.1-1.2-0.7-1.5c-0.4-0.2-0.7-0.2-0.9-0.2
		c-0.7,0-1.3,0.3-1.5,1c-0.1,0.2-0.1,0.5-0.1,0.6v2.5c0,0.6,0.1,1,0.2,1.2c0.2,0.3,0.6,0.6,1.4,0.6c0.5,0,0.8-0.1,1.2-0.4
		c0.4-0.4,0.4-1,0.4-1.6V12.5z"/>
	<path fill="#F8AB25" d="M238.8,28.9l-0.5-3.6h-3.7l-0.6,3.6h-4l4.3-22h4.6l4.1,22H238.8z M236.5,12.5L235,22h2.8L236.5,12.5z"/>
	<path fill="#F8AB25" d="M252.1,28.9l-3.9-16.5l0.3,16.5h-3.8v-22h5.2l4,16.1l-0.4-16.1h3.7v22H252.1z"/>
	<path fill="#F8AB25" d="M271,27.9c-1.3,1.2-3.1,1.5-4.8,1.5c-1.6,0-3.3-0.2-4.6-1.3c-0.7-0.5-1-1.1-1.1-1.4
		c-0.4-0.8-0.5-1.7-0.5-2.5V11.9c0-0.5-0.1-2.7,1.4-4c0.8-0.7,2.3-1.4,4.8-1.4c3.2,0,4.9,1.3,5.5,2.6c0.3,0.7,0.5,1.4,0.5,2.9v12.2
		C272.3,25.6,272,26.9,271,27.9z M268.2,12.3c0-0.1,0.1-1.1-0.2-1.8c-0.2-0.4-0.7-1-1.7-1c-0.2,0-0.8,0-1.3,0.4
		c-0.9,0.6-0.8,1.6-0.8,2.5v11.1c0,0.7,0,1.5,0.4,2c0.5,0.7,1.5,0.7,1.6,0.7c0.2,0,0.8,0,1.3-0.4c0.7-0.5,0.7-1.4,0.7-2.2V12.3z"/>
	<path fill="#F8AB25" d="M286.6,26c-0.5,1.8-2,3.4-5.7,3.4c-1.6,0-3.2-0.2-4.5-1.2c-0.7-0.6-1-1.2-1.2-1.5c-0.2-0.6-0.4-1-0.4-2.3
		v-3.2h4v2.6c0,0.8-0.1,1.7,0.7,2.2c0.2,0.2,0.6,0.3,1.2,0.3c0.7,0,1.1-0.2,1.4-0.4c0.6-0.5,0.6-1.4,0.6-2.9c0-0.3,0.1-1.3-0.4-2
		c-0.3-0.5-0.8-0.7-0.9-0.9l-3.8-2.6c-0.8-0.6-1.3-0.9-1.8-1.8c-0.5-0.8-0.8-1.6-0.8-3.5c0-0.3,0-1.9,0.5-3c1.2-2.7,5-2.7,5.4-2.7
		c0.7,0,4.2,0,5.3,2.9c0.2,0.6,0.3,0.8,0.3,1.8v2.2h-4v-2.2c0-0.7-0.2-1.6-1.8-1.6c-0.9,0-1.8,0.3-1.8,2.2c0,0.1-0.1,1.4,0.4,2.1
		c0.1,0.2,0.4,0.4,0.8,0.7l3.9,2.7c0.3,0.2,1.2,0.8,1.8,1.7c1,1.3,0.9,2.2,0.9,3.8C286.8,24.5,286.8,25.2,286.6,26z"/>
	<path fill="#F8AB25" d="M299.3,15.6l-2.1,3.1c-0.8,1.2-1.2,1.8-1.3,2.5c-0.1,0.4-0.1,0.7-0.1,1.1V23h-3.5v-1.1c0-0.5,0-0.8,0-1
		c0.1-1.1,0.4-1.6,1-2.5l2.1-3.2c0.5-0.8,0.9-1.2,0.9-2.6v-2c0-0.3-0.1-1.5-1.4-1.5c-1.2,0-1.5,0.7-1.5,1.7v3.6h-3.5v-2.3
		c0-0.2,0-1.2,0.1-2.1c0.3-1.8,1.3-3.5,5-3.5c0.4,0,2.2-0.1,3.6,0.9c0.2,0.1,0.7,0.5,0.9,1.1c0.3,0.6,0.4,1.4,0.4,2.7v1.2
		C300,13.8,299.7,15,299.3,15.6z M292.3,28.9v-4h3.6v4H292.3z"/>
</g>
</svg>
