<?xml version="1.0" encoding="utf-8"?>
<!-- Generator: Adobe Illustrator 18.0.0, SVG Export Plug-In . SVG Version: 6.00 Build 0)  -->
<!DOCTYPE svg PUBLIC "-//W3C//DTD SVG 1.1//EN" "http://www.w3.org/Graphics/SVG/1.1/DTD/svg11.dtd">
<svg version="1.1" id="Ebene_1" xmlns="http://www.w3.org/2000/svg" xmlns:xlink="http://www.w3.org/1999/xlink" x="0px" y="0px"
	 viewBox="0 0 43.5 31" enable-background="new 0 0 43.5 31" xml:space="preserve">
<g>
	<path fill="#F8AB25" d="M9.2,28.9L5.4,12.5l0.3,16.3H2V7h5.2l3.9,16L10.6,7h3.7v21.8H9.2z"/>
	<path fill="#F8AB25" d="M25,28.9l-0.5-3.6h-3.7l-0.6,3.6h-4L20.4,7H25l4.1,21.8H25z M26.6,5c-0.2,0.1-0.7,0.4-1.4,0.4
		c-0.8,0-2.1-0.5-2.8-0.8C22,4.3,21.5,4,21,4c-1.1,0-1.3,1-1.4,1.2h-2c0-1.2,0.2-2.3,1.2-3.2c0.6-0.5,1.1-0.6,1.8-0.6
		c0.6,0,1.4,0.2,2.6,0.7c0.8,0.4,1.2,0.6,1.7,0.6c0.1,0,0.2,0,0.4-0.1c0.3-0.2,0.5-0.5,0.6-1.2h2C27.8,2.7,27.8,4.3,26.6,5z
		 M22.7,12.6l-1.5,9.4H24L22.7,12.6z"/>
	<path fill="#F8AB25" d="M41.5,27.9c-1.3,1.2-3.1,1.5-4.7,1.5c-1.6,0-3.2-0.2-4.5-1.3c-0.6-0.5-1-1.1-1.1-1.4
		c-0.4-0.8-0.5-1.7-0.5-2.5V12c0-0.5-0.1-2.7,1.4-4c0.8-0.7,2.3-1.4,4.8-1.4c3.2,0,4.8,1.3,5.5,2.6c0.3,0.7,0.5,1.4,0.5,2.9v12.1
		C42.8,25.6,42.6,26.9,41.5,27.9z M38.8,12.3c0-0.1,0.1-1.1-0.2-1.8c-0.2-0.4-0.6-1-1.7-1c-0.2,0-0.8,0-1.3,0.4
		c-0.9,0.6-0.8,1.6-0.8,2.5v11c0,0.6,0,1.5,0.4,2c0.5,0.6,1.5,0.6,1.6,0.6c0.2,0,0.8,0,1.3-0.4c0.7-0.5,0.7-1.4,0.7-2.2V12.3z"/>
</g>
</svg>
