<?xml version="1.0" encoding="utf-8"?>
<!-- Generator: Adobe Illustrator 18.0.0, SVG Export Plug-In . SVG Version: 6.00 Build 0)  -->
<!DOCTYPE svg PUBLIC "-//W3C//DTD SVG 1.1//EN" "http://www.w3.org/Graphics/SVG/1.1/DTD/svg11.dtd">
<svg version="1.1" id="Ebene_1" xmlns="http://www.w3.org/2000/svg" xmlns:xlink="http://www.w3.org/1999/xlink" x="0px" y="0px"
	 viewBox="0 0 43.5 31" enable-background="new 0 0 43.5 31" xml:space="preserve">
<g>
	<path fill="#F8AB25" d="M13.7,26c-0.5,1.8-1.9,3.3-5.7,3.3c-1.5,0-3.2-0.2-4.5-1.2c-0.7-0.6-1-1.1-1.1-1.5C2.1,26,2,25.6,2,24.4
		v-3.2h4v2.5c0,0.8-0.1,1.7,0.7,2.2c0.2,0.2,0.6,0.3,1.2,0.3c0.7,0,1.1-0.2,1.4-0.4c0.6-0.5,0.6-1.4,0.6-2.9c0-0.3,0.1-1.3-0.4-2
		c-0.3-0.5-0.8-0.7-0.9-0.9l-3.8-2.6c-0.8-0.6-1.3-0.9-1.8-1.8c-0.5-0.8-0.8-1.6-0.8-3.5c0-0.3,0-1.9,0.5-3c1.2-2.7,5-2.7,5.4-2.7
		c0.6,0,4.1,0,5.3,2.9c0.2,0.6,0.3,0.8,0.3,1.8v2.2h-4v-2.2c0-0.6-0.2-1.6-1.8-1.6c-0.9,0-1.8,0.3-1.8,2.2c0,0.1-0.1,1.4,0.4,2.1
		c0.1,0.2,0.4,0.4,0.8,0.7l3.9,2.7c0.3,0.2,1.1,0.8,1.8,1.7c1,1.3,0.9,2.2,0.9,3.8C13.9,24.4,13.9,25.2,13.7,26z"/>
	<path fill="#F8AB25" d="M16.5,28.9V7h4v21.8H16.5z"/>
	<path fill="#F8AB25" d="M37.7,28.9L38.1,10l-3.5,18.9h-3.7L27.2,10l0.3,18.9h-4V7h6.6l2.6,15.3L35.3,7h6.5v21.8H37.7z"/>
</g>
</svg>
