<?xml version="1.0" encoding="utf-8"?>
<!-- Generator: Adobe Illustrator 18.0.0, SVG Export Plug-In . SVG Version: 6.00 Build 0)  -->
<!DOCTYPE svg PUBLIC "-//W3C//DTD SVG 1.1//EN" "http://www.w3.org/Graphics/SVG/1.1/DTD/svg11.dtd">
<svg version="1.1" id="Ebene_1" xmlns="http://www.w3.org/2000/svg" xmlns:xlink="http://www.w3.org/1999/xlink" x="0px" y="0px"
	 viewBox="0 92.8 612 606.4" enable-background="new 0 92.8 612 606.4" xml:space="preserve">
<g>
	<path fill="#F9AC28" d="M306,134.7C161.9,134.7,44.7,251.9,44.7,396S161.9,657.3,306,657.3S567.3,540.1,567.3,396
		S450.1,134.7,306,134.7z M306,645.9C168.2,645.9,56.1,533.8,56.1,396S168.2,146.1,306,146.1S555.9,258.2,555.9,396
		S443.8,645.9,306,645.9z"/>
	<polygon fill="#F9AC28" points="149.5,336.8 174.2,336.8 174.2,323.9 149.5,323.9 149.5,302.3 175.8,302.3 175.8,289 133.6,289 
		133.6,375.2 149.5,375.2 	"/>
	<path fill="#F9AC28" d="M181.1,356.8c0,3.2,0.4,6.8,1.8,9.9c0.5,1.2,1.7,3.3,4.3,5.4c5.1,4.2,11.6,5,17.9,5c6.6,0,13.6-1,18.7-5.7
		c4.2-4,5-9,5-14.5v-47.9c0-6-0.6-8.7-1.9-11.5c-2.6-5-9.1-10.1-21.6-10.1c-9.6,0-15.6,2.8-18.8,5.6c-5.7,5.1-5.4,13.8-5.4,15.6
		L181.1,356.8L181.1,356.8z M200.1,300.8c2-1.5,4.3-1.6,5.1-1.6c4,0,5.9,2.2,6.6,3.8c1.3,2.6,1,6.5,1,7v44.5c0,3.2,0.1,6.6-2.8,8.7
		c-2,1.3-4.3,1.5-5,1.5c-0.7,0-4.7,0-6.5-2.6c-1.6-2.2-1.4-5.4-1.4-7.9v-43.5C197.1,307,196.6,303.2,200.1,300.8z"/>
	<path fill="#F9AC28" d="M277.2,334.8c7.6-2.3,10.1-6.2,10.1-14.8v-15.6c0-10.5-5-15.4-15.5-15.4h-31.7v86.1H256V337h6l12.2,38.2
		h16.5L277.2,334.8z M271.6,316.1c0,6.2-1.8,8.2-7.3,8.2H256v-22.9h8.3c5.5,0,7.3,1.7,7.3,7.1V316.1z"/>
	<path fill="#F9AC28" d="M328.5,289h-18.2l-16.7,86.1h15.9l2.3-14h14.6l2.1,14h16.1L328.5,289z M313.8,347.8l5.7-37l5.2,37H313.8z"
		/>
	<path fill="#F9AC28" d="M418.8,372.5c3.4-2,7.6-6.6,8.1-15.7c0.1-1.6,0.1-3.2,0.1-4.7v-40.3c0-7.1-0.5-13.4-6.3-18.4
		c-4.7-3.9-9.5-4.3-11.8-4.3h-29.2v86.1h25.5C409.9,375.2,414.4,375.1,418.8,372.5z M395.5,362.6v-61h6.2c2.4,0,5.1-0.2,7.2,1.5
		c2.3,2,2.2,4.6,2.2,7.3v42.9c0,4.3-0.4,8-5.5,9c-1.5,0.2-3,0.2-4.5,0.2H395.5z"/>
	<polygon fill="#F9AC28" points="480.9,361.9 453.8,361.9 453.8,335.4 478.2,335.4 478.2,322.4 453.8,322.4 453.8,302.1 
		479.7,302.1 479.7,289 438,289 438,375.2 480.9,375.2 	"/>
	<polygon fill="#F9AC28" points="136.7,436.9 161.1,436.9 161.1,423.9 136.7,423.9 136.7,403.6 162.5,403.6 162.5,390.6 
		120.8,390.6 120.8,476.7 163.8,476.7 163.8,463.4 136.7,463.4 	"/>
	<path fill="#F9AC28" d="M206.8,431.1l-15.4-10.6c-1.7-1.2-2.8-2.1-3.3-2.8c-2-2.8-1.7-7.9-1.7-8.3c0-7.2,3.4-8.5,7.1-8.5
		c6.1,0,7.1,3.7,7.1,6.2v8.8h15.9v-8.5c0-4.2-0.5-5-1.3-7.2c-4.5-11.4-18.3-11.4-20.9-11.4c-1.7,0-16.5,0-21.4,10.5
		c-2.2,4.5-2.1,10.6-2.1,11.8c0,7.3,1.2,10.6,3.1,13.7c2.2,3.5,3.9,4.9,7.2,7.1l15,10.1c0.6,0.5,2.4,1.6,3.7,3.4
		c1.9,2.9,1.7,6.8,1.7,7.9c0,5.9,0,9.6-2.3,11.5c-1.1,1-2.7,1.6-5.5,1.6c-2.4,0-3.9-0.6-4.9-1.2c-3-2-2.8-5.6-2.8-8.8v-10h-15.7
		v12.6c0,4.9,0.7,6.5,1.7,8.9c0.6,1.3,1.7,3.7,4.5,5.9c5.1,4,11.6,4.9,17.7,4.9c14.6,0,20.4-6.2,22.3-13.2c0.8-3.3,0.8-6.1,0.8-12.7
		c0-6.1,0.4-9.9-3.4-14.9C211.3,434.4,207.9,431.8,206.8,431.1z"/>
	<polygon fill="#F9AC28" points="221.6,403 237.4,403 237.4,476.7 253.4,476.7 253.4,403 269.4,403 269.4,390.6 221.6,390.6 	"/>
	<path fill="#F9AC28" d="M299.1,388.7c-9.6,0-15.6,2.8-18.8,5.6c-5.7,5.1-5.4,13.8-5.4,15.6v48.3c0,3.2,0.4,6.8,1.8,9.9
		c0.5,1.2,1.7,3.3,4.3,5.4c5.1,4.2,11.6,5,17.9,5c6.6,0,13.6-1,18.7-5.7c4.2-4,5-9,5-14.5v-47.9c0-6-0.6-8.7-1.9-11.5
		C318.1,393.9,311.5,388.7,299.1,388.7z M306.7,411.4V456c0,3.2,0.1,6.6-2.8,8.7c-2,1.3-4.3,1.5-5,1.5c-0.7,0-4.7,0-6.5-2.6
		c-1.6-2.2-1.4-5.4-1.4-7.9V412c0-3.5-0.5-7.3,3-9.8c2-1.5,4.3-1.6,5.1-1.6c4,0,5.9,2.2,6.6,3.8C307,407,306.7,410.9,306.7,411.4z"
		/>
	<path fill="#F9AC28" d="M380.7,458.8v-48.4c0-6.1-0.6-8.5-1.9-11.4c-1.2-2.6-3.3-4.4-4-5c-4.9-4-11.6-5.2-17.6-5.2
		c-12.8,0-19.5,5.2-22.1,10.5c-1.6,3.4-1.8,6.6-1.8,10.4v50.3c0,1,0,4.6,1.5,7.9c0.4,1,1.2,2.7,3,4.6c4.7,4.7,11.6,6.1,18,6.1
		c4.1,0,7.8-0.7,9.3-1.1c0.5-0.1,1-0.4,1.4-0.5l10.9,11.1l9.8-9.6l-8.7-9C379.9,466.6,380.7,464.6,380.7,458.8z M357,465.8
		c-7.1,0-7.7-4.8-7.7-7.6v-47.6c0-3.4,0.1-7.3,3.8-9c1.7-0.7,3.4-0.8,4.2-0.8c7.1,0,7.6,5.4,7.6,7.8v47.7
		C364.8,458.8,365.2,465.8,357,465.8z"/>
	<path fill="#F9AC28" d="M422.9,454.5c0,3,0.4,7.1-2.7,9.1c-1.8,1.3-3.9,1.3-4.7,1.3c-1,0-5-0.1-6.6-3.7c-0.9-2.1-0.9-4.4-0.9-6.7
		v-64h-15.9v66.4c0,3.1,0.4,6.5,1.6,9.5c1.1,2.9,2.8,5,3.7,5.9c4.7,4.9,11.2,6.2,17.6,6.2c2.1,0,13.8,0.5,19.9-7.4
		c3.4-4.4,3.9-8.7,3.9-13.8v-66.7h-16L422.9,454.5L422.9,454.5z"/>
	<polygon fill="#F9AC28" points="492.4,403.6 492.4,390.6 450.7,390.6 450.7,476.7 493.6,476.7 493.6,463.4 466.6,463.4 
		466.6,436.9 491,436.9 491,423.9 466.6,423.9 466.6,403.6 	"/>
	<path fill="#F9AC28" d="M596,408.6l13.2-13.2l-13-12.3L608,369l-14.1-11.2l10.6-15.1l-15-9.9l9.2-15.9l-15.8-8.5l7.8-16.7
		l-16.5-7.1l6.3-17.3l-17-5.7l4.8-17.8l-17.5-4.2l3.2-18.1l-17.8-2.6l1.6-18.3l-17.9-1.1v-18.4l-17.9,0.5l-1.6-18.3l-17.8,2.1
		l-3.2-18.1l-17.6,3.6l-4.8-17.8l-17.2,5.1l-6.3-17.3l-16.7,6.6L409,111l-16.1,8l-9.2-15.9l-15.1,9.3l-10.6-15.1L343.7,108
		l-11.8-14.1l-13.4,11.9l-13-13l-12.3,13L279,94l-11.2,14.1l-15.1-10.5l-9.9,15l-15.9-9.2l-8.5,15.8l-16.7-7.8l-7.1,16.5l-17.3-6.3
		l-5.7,17l-17.8-4.8l-4.2,17.5l-18.1-3.2l-2.6,17.8l-18.3-1.6l-1.1,17.9H91.3l0.5,17.9l-18.3,1.6l2.1,17.8l-18.1,3.2l3.6,17.6
		L43.2,245l5.1,17.2l-17.3,6.3l6.6,16.6L21,292.9l8,16.1l-15.9,9.2l9.4,15.3L7.4,344l10.7,14.4L4.1,370.2l11.6,13L2.8,395.4l13,13
		L3.9,421.8L18,433.7L7.3,448.1l15.1,10.6l-9.4,15.3l15.9,9.2l-8,16.1l16.7,7.8l-6.6,16.7l17.3,6.3l-5.1,17.2l17.8,4.8l-3.6,17.6
		l18.1,3.2l-2.1,17.8l18.3,1.6L91.1,610h18.4l1.1,17.9l18.3-1.6l2.6,17.8l18.1-3.2l4.2,17.5l17.8-4.8l5.7,17l17.3-6.3l7.1,16.5
		l16.7-7.8l8.5,15.8l16.1-9.3l9.9,14.9l15.1-10.6L279,698l14.1-11.8l12.3,13l13-13l13.4,11.9l11.8-14.1l14.4,10.7l10.6-15.1
		l15.3,9.4l9.2-15.9l16.1,8l7.8-16.7l16.7,6.6l6.3-17.3l17.2,5.1l4.8-17.8l17.6,3.6l3.2-18.1l17.8,2.1l1.6-18.3l17.9,0.5v-18.4
		l17.9-1.1l-1.6-18.3l17.8-2.6l-3.2-18.1l17.5-4.2l-4.8-17.8l17-5.7l-6.3-17.4l16.5-7.1l-7.8-16.7l15.8-8.5l-9.2-15.9l15-9.9
		l-10.6-15.1l14.1-11.2L596,408.6z M605.9,395.5l-11.4,11.4l-9.1-10.9l9.3-11.1L605.9,395.5z M582.2,417.2l-1.9,1.3l1,1.5l-1.4,1.4
		l1.6,1.6l1.2-1.2l8.3,11.8l-10.9,8.7l-0.7-1.3l-2,1.2l0.9,1.6l-1.3,1.1l1.4,1.8l1.1-0.8l7.2,12.5l-11.7,7.7l-0.6-1.3l-2.1,1
		l0.8,1.6l-1.4,0.9l1.3,1.9l1.1-0.8l6.1,13.1l-12.3,6.7l-0.5-1.3l-2.2,0.8l0.6,1.6l-1.5,0.8l1.1,2l1.2-0.6l4.9,13.6l-12.8,5.5
		l-0.4-1.3L556,511l0.4,1.6l-1.6,0.7l0.9,2.1l1.2-0.5l3.8,14.1l-13.2,4.4l-0.3-1.4l-2.3,0.4l0.3,1.8l-1.6,0.5l0.7,2.2l1.3-0.4
		l2.5,14.2l-13.6,3.2l-0.1-1.5l-2.3,0.2l0.2,1.8l-1.7,0.4l0.5,2.3l1.3-0.3l1.3,14.4l-13.8,2v-1.5h-2.3v1.8l-1.7,0.3l0.3,2.3l1.4-0.2
		v14.4l-13.9,0.8l0.1-1.5l-2.3-0.2l-0.2,1.8l-1.7,0.1l0.1,2.3l1.4-0.1L500,608l-14-0.4l0.3-1.4l-2.3-0.4l-0.3,1.8l-1.7,0l-0.1,2.3
		l1.4,0l-2.5,14.2l-13.9-1.6l0.4-1.4l-2.2-0.6l-0.5,1.7l-1.7-0.2l-0.3,2.3l1.4,0.2l-3.7,14l-13.7-2.8l0.5-1.4l-2.2-0.8l-0.6,1.7
		l-1.7-0.3l-0.5,2.3l1.3,0.3l-4.9,13.6l-13.4-4l0.6-1.3l-2.1-1l-0.8,1.6l-1.6-0.5l-0.7,2.2l1.3,0.4l-6.1,13.1l-13-5.1l0.7-1.3
		l-2-1.2l-0.9,1.6l-1.6-0.6l-0.9,2.2l1.3,0.5l-7.2,12.5l-12.5-6.3l0.8-1.2l-1.9-1.3l-1,1.5l-1.5-0.8l-1,2.1l1.2,0.6l-8.3,11.8
		l-11.9-7.3l0.9-1.1l-1.8-1.5l-1.2,1.4l-1.5-0.9l-1.2,2l1.2,0.7l-9.3,11.1l-11.2-8.3l1-1l-1.6-1.6l-1.3,1.3l-1.4-1l-1.4,1.9l1.1,0.8
		L318.3,683l-10.4-9.3l1.1-0.9l-1.5-1.8l-1.4,1.2l-1.3-1.1l-1.5,1.7l1,0.9l-11.1,9.3l-9.6-10.1l1.2-0.8l-1.3-1.9l-1.5,1l-1.2-1.2
		l-1.7,1.6l0.9,1l-11.8,8.3l-8.6-10.9l1-0.6l-1.2-2l-1.3,0.8l-1.1-1.4l-1.8,1.4l0.9,1.1l-12.5,7.2l-7.7-11.6l1.1-0.5l-1-2.1
		l-1.4,0.7l-1-1.5l-1.9,1.3l0.8,1.2l-13.3,6.2l-6.6-12.3l1.4-0.5l-0.8-2.2l-1.7,0.6l-0.8-1.5l-2,1.1l0.7,1.2l-13.6,4.9l-5.5-12.8
		l1.4-0.4L191,646l-1.7,0.5l-0.7-1.6l-2.1,0.9l0.5,1.2l-14,3.7l-4.4-13.2l1.4-0.3l-0.4-2.3l-1.8,0.3l-0.5-1.6l-2.2,0.7l0.4,1.3
		l-14.2,2.5l-3.2-13.6l1.5-0.1l-0.2-2.3l-1.8,0.2l-0.4-1.7l-2.3,0.5l0.3,1.3l-14.4,1.3l-2-13.8h1.5v-2.3h-1.8l-0.3-1.7l-2.3,0.3
		l0.2,1.3h-14.4l-0.8-13.9l1.5,0.1l0.2-2.3l-1.8-0.2l-0.1-1.7l-2.3,0.1l0.1,1.4L94,589.9l0.4-14l1.4,0.3l0.4-2.3l-1.8-0.3l0-1.7
		l-2.3-0.1l0,1.4l-14.2-2.5l1.6-13.9l1.4,0.4l0.6-2.2l-1.7-0.5l0.2-1.7l-2.3-0.3l-0.2,1.4l-14-3.7l2.8-13.7l1.4,0.5l0.8-2.2
		l-1.7-0.6l0.3-1.7l-2.3-0.5l-0.3,1.3L51,528.5l4-13.4l1.3,0.6l1-2.1l-1.6-0.8l0.5-1.6l-2.2-0.7l-0.4,1.3l-13.1-6.1l5.1-13l1.3,0.7
		l1.2-2l-1.6-0.9l0.6-1.6l-2.2-0.9l-0.5,1.3l-12.5-7.2l6.3-12.5l1.2,0.8l1.3-1.9l-1.5-1l0.8-1.5l-2.1-1l-0.6,1.2L25.5,458l7.3-11.9
		l1.1,0.9l1.5-1.8l-1.4-1.2l0.9-1.5l-2-1.2l-0.7,1.2l-11.1-9.3l8.3-11.2l1,1l1.6-1.6l-1.3-1.3l1-1.4l-1.9-1.4l-0.8,1.1L19,408.3
		l9.4-10.6l1,1.1l1.7-1.5l-1.1-1.3l1-1.1l-1.7-1.5l-0.8,0.9l-9.6-10.8l10.5-9.9l0.8,1.1l1.9-1.4l-1-1.3l1.1-1l-1.6-1.7l-0.9,0.8
		l-8.3-11.2l11.1-9.3l0.7,1.2l2-1.2l-0.9-1.5l1.4-1.2l-1.5-1.8L33,346l-7.3-11.9l11.8-8.3l0.6,1.2l2.1-1l-0.8-1.5l1.5-1l-1.3-1.9
		l-1.2,0.8l-6.3-12.5l12.5-7.2l0.5,1.4l2.2-0.9l-0.7-1.7l1.6-0.9l-1.2-2l-1.3,0.7l-5.1-13l13.1-6.1l0.4,1.4l2.2-0.7l-0.5-1.7
		l1.6-0.8l-1-2.1l-1.3,0.6l-4-13.3l13.6-4.9l0.3,1.3l2.3-0.5l-0.3-1.7l1.7-0.6l-0.8-2.2l-1.4,0.5L63.7,242l14-3.7l0.2,1.4l2.3-0.3
		l-0.2-1.7l1.7-0.5l-0.6-2.2l-1.4,0.4l-1.6-13.9l14.2-2.5l0,1.4l2.3-0.1l0-1.7l1.8-0.3l-0.4-2.3l-1.4,0.3l-0.4-14l14.4-1.3l-0.1,1.4
		l2.3,0.1l0.1-1.7l1.8-0.2l-0.2-2.3l-1.5,0.1l0.8-13.9h14.4l-0.2,1.3l2.3,0.3l0.3-1.7h1.8v-2.3H129l2-13.8l14.4,1.3l-0.3,1.3
		l2.3,0.5l0.4-1.7l1.8,0.2l0.2-2.3l-1.5-0.1l3.2-13.6l14.2,2.5l-0.4,1.3l2.2,0.7l0.5-1.6l1.8,0.3l0.4-2.3l-1.4-0.3l4.4-13.2l14,3.7
		l-0.5,1.2l2.1,0.9l0.7-1.6l1.7,0.5l0.6-2.2l-1.4-0.4l5.5-12.8l13.6,4.9l-0.7,1.2l2,1.1l0.8-1.5l1.7,0.6l0.8-2.2l-1.4-0.5l6.6-12.3
		l13.1,6.1l-0.8,1.1l1.9,1.3l0.9-1.4l1.6,0.8l1-2.1l-1.3-0.6l7.7-11.7l12.5,7.2l-0.8,1.1l1.8,1.4l1.1-1.3l1.6,0.9l1.2-2l-1.2-0.7
		l8.7-10.9l11.8,8.3l-0.9,1l1.7,1.6l1.2-1.2l1.5,1l1.3-1.9l-1.2-0.8l9.6-10.1l11.1,9.3l-1,0.9l1.5,1.7l1.3-1.1l1.4,1.2l1.5-1.8
		l-1.1-0.9l10.4-9.3l10.2,10.2l-1.1,0.8l1.4,1.9l1.4-1l1.3,1.3l1.6-1.6l-1-1l11.2-8.3l9.3,11.1l-1.4,0.8l1.2,2l1.7-1l1.1,1.3
		l1.8-1.5l-0.9-1.1l11.9-7.3l8.3,11.8l-1.4,0.7l1,2.1l1.7-0.9l1,1.4l1.9-1.3l-0.8-1.1l12.3-6.1l7.2,12.5l-1.3,0.5l0.9,2.2l1.6-0.6
		l0.9,1.6l2-1.2l-0.7-1.3l13-5.1l6.1,13.1l-1.3,0.4l0.7,2.2l1.6-0.5l0.8,1.6l2.1-1l-0.6-1.3l13.4-4l4.9,13.6l-1.3,0.3l0.5,2.3
		l1.7-0.3l0.6,1.7l2.2-0.8l-0.5-1.4l13.7-2.8l3.7,14l-1.4,0.2l0.3,2.3l1.7-0.2l0.5,1.7l2.2-0.6l-0.4-1.4l13.9-1.6l2.5,14.2l-1.4,0
		l0.1,2.3l1.7,0l0.3,1.8l2.3-0.4l-0.3-1.4l14-0.4l1.3,14.4l-1.4-0.1l-0.1,2.3l1.7,0.1l0.2,1.8l2.3-0.2l-0.1-1.4l13.9,0.8v14.4
		l-1.4-0.2l-0.3,2.3l1.7,0.3v1.8h2.3v-1.5l13.8,2l-1.3,14.4l-1.3-0.3l-0.5,2.3l1.7,0.4l-0.2,1.8l2.3,0.2l0.1-1.5l13.6,3.2l-2.5,14.2
		l-1.3-0.4l-0.7,2.2l1.6,0.5l-0.3,1.8l2.3,0.4l0.3-1.4l13.2,4.4l-3.7,14l-1.3-0.5l-0.9,2.1l1.6,0.7l-0.5,1.7l2.2,0.6l0.4-1.4
		l12.8,5.5l-4.9,13.6l-1.2-0.7l-1.1,2l1.5,0.8l-0.6,1.7l2.2,0.8l0.5-1.4l12.3,6.6l-6.1,13.1l-1.1-0.8l-1.3,1.9l1.4,0.9l-0.8,1.6
		l2.1,1l0.6-1.3l11.7,7.7l-7.2,12.5l-1.1-0.8l-1.4,1.8l1.3,1.1l-0.9,1.6l2,1.2l0.7-1.3l10.9,8.7l-8.3,11.8l-1-0.9l-1.6,1.7l1.2,1.2
		l-1,1.5l1.9,1.3l0.8-1.2l10.1,9.6l-9.1,10.9l-0.9-1.1l-1.8,1.5l1.2,1.4l-1.3,1.6l1.8,1.5l1.1-1.3l9,10.7l-9.9,9.9L582.2,417.2z
		 M604.7,369.3l-10.2,12.2l-10.3-9.7l8.4-12L604.7,369.3z M601.2,343.4l-9.1,13l-11.1-8.8l7.3-12.7L601.2,343.4z M595.5,317.9
		l-7.9,13.7l-11.8-7.8l6.2-13.3L595.5,317.9z M587.5,292.9l-6.7,14.4l-12.5-6.7l5-13.8L587.5,292.9z M577.5,268.8l-5.4,14.9l-13-5.6
		l3.8-14.1L577.5,268.8z M565.3,245.6l-4.1,15.3l-13.4-4.5l2.5-14.4L565.3,245.6z M551.2,223.6l-2.8,15.6l-13.8-3.3l1.3-14.6
		L551.2,223.6z M535.3,202.9l-1.4,15.8l-14-2.1v-14.6L535.3,202.9z M517.5,183.6v15.9l-14.1-0.8l-1.3-14.6L517.5,183.6z M498.2,166
		l1.4,15.8l-14.2,0.4l-2.5-14.4L498.2,166z M477.4,150.1l2.8,15.6l-14.1,1.6l-3.8-14.1L477.4,150.1z M455.3,136.1l4.1,15.3
		l-13.9,2.8l-5-13.8L455.3,136.1z M432.1,124.1l5.4,14.9l-13.6,4l-6.2-13.3L432.1,124.1z M407.9,114.1l6.7,14.4l-13.2,5.2l-7.3-12.7
		L407.9,114.1z M382.9,106.3l7.9,13.7l-12.5,6.2l-8.4-12L382.9,106.3z M357.6,100.6l9.1,13l-12.1,7.4l-9.4-11.2L357.6,100.6z
		 M331.6,97.2l10.2,12.2l-11.4,8.4l-10.4-10.4L331.6,97.2z M305.5,96.1l11.2,11.2l-10.6,9.4l-11.2-9.4L305.5,96.1z M279.3,97.3
		l12.2,10.2l-9.7,10.3l-12-8.4L279.3,97.3z M253.4,100.8l13,9.1l-8.8,11.1l-12.7-7.3L253.4,100.8z M227.9,106.5l13.7,7.9l-7.8,11.8
		l-13.3-6.2L227.9,106.5z M203,114.5l14.4,6.7l-6.7,12.5l-13.8-5L203,114.5z M178.8,124.5l14.9,5.4l-5.6,13l-14.1-3.8L178.8,124.5z
		 M155.6,136.7l15.3,4.1l-4.5,13.4l-14.4-2.5L155.6,136.7z M133.6,150.8l15.6,2.8l-3.3,13.8l-14.6-1.3L133.6,150.8z M112.9,166.7
		l15.8,1.4l-2.1,14H112L112.9,166.7z M93.6,184.5h15.9l-0.8,14.1l-14.6,1.3L93.6,184.5z M76,203.8l15.8-1.4l0.4,14.2l-14.4,2.5
		L76,203.8z M60.1,224.6l15.6-2.8l1.6,14.1l-14.1,3.8L60.1,224.6z M46.1,246.7l15.3-4.1l2.8,13.9l-13.8,5L46.1,246.7z M34.1,269.9
		l14.9-5.4l4,13.5l-13.3,6.2L34.1,269.9z M24.1,294l14.4-6.7l5.2,13.2L31,307.8L24.1,294z M16.3,319l13.7-7.9l6.3,12.7l-12,8.4
		L16.3,319z M10.7,344.5l13-9.1l7.4,12.1l-11.2,9.4L10.7,344.5z M7.4,370.5l12.2-10.2l8.4,11.4l-10.6,10.1L7.4,370.5z M6.1,395.5
		l11-10.5l9.7,10.9l-9.5,10.7L6.1,395.5z M7.2,421.6l10.2-11.5l10.4,10.4l-8.4,11.4L7.2,421.6z M10.6,447.5l9.2-12.4l11.2,9.4
		l-7.4,12.1L10.6,447.5z M16.2,473.1l8.1-13.1l12,8.4L29.9,481L16.2,473.1z M24,498.1l6.9-13.8l12.7,7.3l-5.2,13.2L24,498.1z
		 M33.9,522.3l5.7-14.3l13.3,6.2l-4,13.6L33.9,522.3z M45.9,545.5l4.4-14.8l13.8,5l-2.8,13.9L45.9,545.5z M60,567.6l3.1-15.1
		l14.1,3.8l-1.6,14.1L60,567.6z M75.8,588.4l1.8-15.3l14.4,2.5l-0.4,14.2L75.8,588.4z M93.5,607.7l0.4-15.4l14.6,1.3l0.8,14.1H93.5z
		 M112.7,625.4l-0.9-15.4h14.6l2.1,14L112.7,625.4z M133.4,641.4l-2.3-15.3l14.6-1.3l3.3,13.8L133.4,641.4z M155.5,655.5l-3.6-15
		l14.4-2.5l4.5,13.4L155.5,655.5z M178.6,667.6l-4.9-14.6l14.1-3.8l5.6,13L178.6,667.6z M202.8,677.7l-6.1-14.2l13.8-5l6.7,12.5
		L202.8,677.7z M227.7,685.6l-7.3-13.6l13.5-6.3l7.8,11.8L227.7,685.6z M253.4,691.2l-8.5-12.8l12.7-7.3l8.8,11.1L253.4,691.2z
		 M279.3,694.7l-9.6-12.1l12-8.4l9.7,10.3L279.3,694.7z M305.5,695.9l-10.6-11.2l11.2-9.4l10.6,9.4L305.5,695.9z M331.6,694.8
		l-11.5-10.2l10.4-10.4l11.4,8.4L331.6,694.8z M357.6,691.4l-12.4-9.2l9.4-11.2l12.1,7.4L357.6,691.4z M383.1,685.8l-13.1-8.1
		l8.4-12l12.7,6.3L383.1,685.8z M408.1,678l-13.8-6.9l7.3-12.7l13.2,5.2L408.1,678z M432.3,668.1l-14.3-5.7l6.2-13.3l13.6,4
		L432.3,668.1z M455.5,656l-14.8-4.4l5-13.8l13.9,2.8L455.5,656z M477.6,642l-15.1-3.1l3.8-14.1l14.1,1.6L477.6,642z M498.4,626.2
		l-15.3-1.8l2.5-14.4l14.2,0.4L498.4,626.2z M517.7,608.5l-15.4-0.4l1.3-14.6l14.1-0.8L517.7,608.5L517.7,608.5z M535.5,589.3
		l-15.4,0.9v-14.6l14-2.1L535.5,589.3z M551.4,568.6l-15.3,2.3l-1.3-14.6l13.8-3.3L551.4,568.6z M565.5,546.5l-15,3.6l-2.5-14.4
		l13.4-4.5L565.5,546.5z M577.7,523.4l-14.6,4.9l-3.8-14.3l13-5.6L577.7,523.4z M587.7,499.1l-14.2,6.1l-5-13.8l12.5-6.7
		L587.7,499.1z M595.6,474.2l-13.6,7.3l-6.2-13.3l11.8-7.8L595.6,474.2z M601.4,448.7l-12.9,8.5l-7.3-12.7l11.1-8.8L601.4,448.7z
		 M584.3,420.3l10-10l10.5,12.5l-12.1,9.6L584.3,420.3z"/>
</g>
</svg>
