<?xml version="1.0" encoding="utf-8"?>
<!-- Generator: Adobe Illustrator 18.0.0, SVG Export Plug-In . SVG Version: 6.00 Build 0)  -->
<!DOCTYPE svg PUBLIC "-//W3C//DTD SVG 1.1//EN" "http://www.w3.org/Graphics/SVG/1.1/DTD/svg11.dtd">
<svg version="1.1" id="Ebene_1" xmlns="http://www.w3.org/2000/svg" xmlns:xlink="http://www.w3.org/1999/xlink" x="0px" y="0px"
	 viewBox="9.3 99.3 593.3 593.3" enable-background="new 9.3 99.3 593.3 593.3" xml:space="preserve">
<g>
	<path fill="#3C2320" d="M381.3,321.4c8.9,0.1,17.7,0.1,26.6,0c5.3,0,8.9-3.6,9-8.9c0.1-4.4,0-8.9,0-13.3c0-4.4,0-8.9,0-13.3
		c-0.1-5.1-3.5-8.8-8.7-8.9c-9-0.1-17.9-0.1-26.9,0c-5.3,0.1-8.8,3.8-8.9,9.1c-0.1,8.8-0.1,17.5,0,26.3
		C372.4,317.6,376,321.3,381.3,321.4z"/>
	<path fill="#3C2320" d="M9.3,99.3v593.3h593.3V99.3H9.3z M150.9,294.1c8.6-29.3,35.7-52.3,65.8-55.5c3.4-0.4,6.8-0.6,10.2-0.6
		c52.9,0,105.7,0,158.5,0c35.6,0,66.8,24,75.9,58.5c1.4,5.5,2.2,11.3,2.5,17c0.4,8.2,0.1,16.4,0.1,25.2c-1.5,0-2.6,0-3.7,0
		c-35.4,0-70.9,0-106.3-0.1c-1.7,0-3.6-0.7-5.1-1.6c-27.6-16.7-55.2-16.6-82.8,0.2c-1.2,0.8-2.8,1.4-4.2,1.4
		c-37.1,0.1-74.2,0.1-111.3,0.1c-0.7,0-1.4-0.1-2-0.1c-0.2-0.3-0.4-0.4-0.4-0.6C148.1,323.3,146.6,308.5,150.9,294.1z M338.8,399.5
		c-0.1,17-14.1,30.8-31.2,30.9c-17.4,0.1-31.3-13.7-31.3-31c0-17.2,13.7-31,30.9-31C324.7,368.3,338.9,382.3,338.8,399.5z
		 M463.7,478c-0.7,30.2-15.9,52.4-42.1,67c-10.8,6-22.5,8.9-34.9,9c-54.2,0-108.4,0.3-162.6-0.1c-36.7-0.3-68.8-28.2-75.1-64.4
		c-0.8-4.3-1.2-8.8-1.2-13.2c-0.1-34.7-0.1-69.4-0.1-104.2c0-1.3,0-2.7,0-4.4c30.6,0,60.9,0,91,0c-13.7,39-5.7,71.6,29.3,94.9
		c25.3,16.9,58.9,15.5,82.9-2.9c31.4-24,38-55.4,24.8-92c29.1,0,58.3,0,87.7,0c0.1,0.6,0.3,1.2,0.3,1.8
		C464,405.7,464.5,441.9,463.7,478z"/>
</g>
</svg>
