<?xml version="1.0" encoding="utf-8"?>
<!-- Generator: Adobe Illustrator 18.0.0, SVG Export Plug-In . SVG Version: 6.00 Build 0)  -->
<!DOCTYPE svg PUBLIC "-//W3C//DTD SVG 1.1//EN" "http://www.w3.org/Graphics/SVG/1.1/DTD/svg11.dtd">
<svg version="1.1" id="Ebene_1" xmlns="http://www.w3.org/2000/svg" xmlns:xlink="http://www.w3.org/1999/xlink" x="0px" y="0px"
	 viewBox="0 254.1 612 280.3" enable-background="new 0 254.1 612 280.3" xml:space="preserve">
<g>
	<polygon fill="#FBB354" points="233.4,277 231.5,495.2 202.8,522.1 202.7,327.7 93.2,387.6 60.8,359.5 	"/>
	<path fill="#FBB354" d="M224.6,429.1c0-0.7-0.1-1.4-0.2-1.8C224.4,428.4,224.5,428.9,224.6,429.1z"/>
	<path fill="#FBB354" d="M197,510.3c0.1,0,0.1,0.1,0.2,0C197.2,510.1,197.1,510.1,197,510.3z"/>
	<path fill="#FBB354" d="M225.6,398c-0.1-0.1-0.1-0.2-0.2-0.2C225.4,397.9,225.5,398,225.6,398z"/>
	<path fill="#FBB354" d="M135.6,316.8c-0.2,0.1-0.5,0.3-0.7,0.4C135.1,317.1,135.3,316.9,135.6,316.8z"/>
	<path fill="#FBB354" d="M210.7,483c-0.1-0.4-0.1-0.7-0.2-0.8C210.5,482.7,210.6,483,210.7,483z"/>
	<path fill="#FAB056" d="M208.8,482.6c0.5,6.1,1.1-1.3,1.6-0.4c-0.2-1.6-0.1-5.1-0.5-3.5c1.1-3.2-0.6-9.7,0.3-13.2
		c-0.1-0.1-0.5,1.9-0.8-0.5c-0.1-3.6,0.4-3.3,0.6-4.8c-0.3-1.1-0.6-6.5-0.4-6c-0.3-2.4-1.1,2.5-1.6-0.8c-0.8-2.3-0.1-5.3-0.3-8
		c0.5-3.2,0.4,3.2,0.6,4.5l-0.4-9.1c0.4-2.7,0.7,1.2,0.7,3.9c0.5-3.6,0-8.3-0.6-9.3c0.1-2.3,0-3.5,0.2-5.6c0.4,2.1,1.4,2,1.6,5.3
		c-0.1,5.5-0.8-2-1,2.7l0.6,0.4c-0.4,2,0.1,3.6,0.2,5.7c-0.2,1.2-0.2-0.3-0.3-1.1c0.1,3.9-0.3,6.9,0.4,9.9
		c0.6-5.2-0.2-13.1,0.5-15.3l-0.9-10.4c-0.3,0-0.8,3.6-1.2,0.7c0.8-1.2,1.1-4.3,1.2-8.3c-0.8,1.5-0.7-6.4-1.4-4.4
		c0.4,1.9-0.3,2.8-0.3,3.1c-0.1-3.9-0.8-0.5-0.8-2.7c0.2-7.1,0.5,0.3,0.8-6.7c0.4,1.5,1.2,5.2,1.6,9c0.4-0.3-0.1-3.9,0.4-5.5
		c-0.4,2.3-0.8-1.6-1,0.3c-0.4-5.6-1.2-12.1-1.4-18.9c1.2,1.1,0.9,11.4,2.4,9.3c-0.2-3.3-0.8-3.3-0.7-6c0.7-2.3,0.1-7.9,0.1-12.4
		l-0.4,2c-0.3-1.7-0.1-4.9,0-6.9l0.2,0.5l-0.2-2c0-0.3,0.1-0.4,0.1-0.4c-0.4-2.2,0-7.7-0.2-11.9c-0.6,0,0,4.1-0.1,6.1
		c-0.1,0.5-0.4,4.4-0.8,2.5c0-5.2-0.7-8.8-0.7-14.6l-0.2,1.9c-0.4-1.9-0.2-4.4-0.2-7.2c0.4-5.1,0.8,3.7,1.2,0.7c0.5,2-0.1,5.5,0.7,6
		l0.8-3.2c-0.5-2.7,0.2-5.6,0.1-7.5l-0.4,2c-0.6-0.4-0.2-2.3-0.1-3.2l-0.9,1.4c-0.2,2.9,0.7,4.9,0.1,7.1c-0.3-5.2-1.1-4-1.1-10.2
		c0.4-0.3,0.1,1.2,0.4,1.9c0.1-1.1,0-2.2-0.1-3.4c-0.1-0.6-0.1-1.3-0.1-2c0-0.4,0-0.7,0-1.1l0-0.6l0-0.8l0,0.6l0.1,0.4l0.1,0.8
		c0.1,0.5,0.2,1,0.2,1.4c0.2,0.7,0.4,0.9,0.7-0.4l-0.7-1.9l0-0.5c0-0.2,0-0.4,0.1-0.5c0-0.3,0.1-0.4,0.1-0.5
		c0.1-0.2,0.2-0.2,0.2-0.7c0.1-3.7-0.7,1-0.6-4.7c0.1-0.9,0.3-2.9,0.5-2.2c0-6.7-0.2-3.1-0.6-8.7c0,5.5-1.1,6.5-1.2,1.6
		c0-1.5,0-2.9,0-4.2c-2.2,1.3-4.2,2.4-6,3.4c-1.8,1-3.4,1.7-5.2,2.3l-2.8,2.1c0.9-0.9-0.2-0.4-1.7,0.5l-2.3,1.3
		c-0.6,0.3-1.1,0.6-1.4,0.8c-0.2-0.1,0.1-0.4,0.7-0.7l0.5-0.3l0.7-0.4l1.9-1.1c2.6-1.5,5.2-3.1,5.3-3.8c-4.6,2.4-2.7,0.9-1.1-0.3
		c-2.7,1.5-3.1,2-3.2,2.3c-0.1,0.3,0.2,0.5-0.8,1.4c0-0.1-0.6,0.2-1.3,0.5l-2.2,1.1c-1.1,0.6-2.1,0.9-1.3,0.1
		c-2.7,1.4-2.8,2.4-4.9,3.3c0.2-0.4,0.3-0.9-0.1-1.2c-0.1,0.3-2.8,1.5-3.3,1.7c0.5-0.1-0.6,1.1,1.6-0.4c-0.3,0.8-5.5,3-5.1,3.4
		c-0.6-0.5-5.1,2.6-7.7,3.7c1,1.3,4.3-3,5.7-2.3c-3,2.3-11,6.1-15.9,9.5c-4.7,2.2-0.3-0.5-1.5-0.5c4.1-2.5,5.4-2.7,8.8-4.9
		c-4.1,1.9-10.6,5.7-13.3,7.7c-4.3,2.4-5.6,1.3-10.6,4.5c0.9,0.1,0.9,0.2,2.6-0.5c-1.3,0.9-3,1.7-4.6,2.5c-0.8,0.8,2.5-0.9,0.6,0.5
		c-0.9,0.4-2.7,1.3-2.5,0.8l0.3-0.2c-4.8,3.2-4.2,0.9-8.1,4.1c0.5,0,1.3-0.8,2.4-1.2c1-0.1-1.4,1.9-3.3,3.1c0.2-0.5-1.8,0.9-3.2,1.6
		c-1.2,0,3.4-2.1,3.9-2.8l-3.9,2l0.9-0.4l-3.9,2.8c2.8-1.8,1.7-0.1,0.5,0.6c-3,1.5-6,3-5.9,2.2c0,0.8-3.7,2.7-6.2,4.3
		c2.9-1.3,0.6,0.3-0.1,0.9l-4.5,1.7c4.4-2.6-1.2,0-0.4-1c1-1.3,3.8-2.5,6.2-3.7c-5.2,1.4-6.1,4.1-10.4,5.8c-0.1-0.3,0-0.8,1.8-1.7
		c-0.4,0.1-1.2,0.7-2.3,1.5c-0.5,0.4-1.2,0.8-1.8,1.2c-0.3,0.2-0.7,0.4-1,0.6l-0.5,0.3l-0.3,0.1c-0.1,0-0.1,0-0.1,0
		c0,0,0.3,0,0.6-0.1c0.2,0,0.5,0,0.6,0s0.1,0.2-0.1,0.4c-0.1,0.1-0.2,0.2-0.4,0.4c-0.1,0.1-0.2,0.1-0.2,0.2l-0.2,0.2
		c-0.7,0.1-1.4,0.2-1.9,0.2c-0.2,0.1-0.3,0.2-0.4,0.2c-0.5-0.4-0.7-0.3-0.8-0.1c-0.2,0.2-0.4,0.4-1.3-0.2c0.3,0.5,0.6,1,1,1.5
		c-0.4,0.5-2.6-2.2-3.4-2c0.2,0.2,0.4,0.4,0.7,0.5l0.3,0.2l0.2,0.2c0.3,0.2,0.6,0.4,0.9,0.6c0.6,0.3,1.1,0.7,1.7,1.4
		c0.4,1.3-1.9-1.1-2.9-1.6l-2-2c-0.5-0.5-0.8-0.8-1.1-1.2l-2.3-2.7c0.6-0.9,5.7,3.2,6,1.6c-3.9-3.2-9.7-7.7-11.9-10.2
		c-3.6-2.7-3.9-1.8-3.8-0.9c-0.7-0.6-1.3-1-1.7-1.4c-0.5-0.5-0.6-0.7-0.9-1l0.6,0.3l0.9,0.6l-0.8-0.6l-0.4-0.3l-0.8-0.6l-1.6-1.1
		c-1.1-0.8-2.2-1.6-3.5-2.7l0.4-0.2c1.5-0.9-0.1-0.9-1.5-0.8l2.4-1.3l-0.6,0.1c-0.3-0.6,2.6-1.7,4.4-2.6c0.2,0.2-0.9,0.8-0.6,0.9
		c0.4-0.1,0.9-0.3,1.3-0.5l0.7-0.3l0.8-0.4c1.1-0.6,2.2-1.2,2.9-1.7c0.1,0.3-0.9,1.5-3.3,2.4c-0.3,0-0.2-0.1-0.4-0.1l-2.5,1.6
		c2.5-1.6,6.2-2.5,6.3-1.8c4.3-2.5-3.9,1.1,1.2-1.7c7.6-2.1,13.1-6.7,17.8-6.7c3.1-1.9,6.6-4.4,11.6-6.8c-0.3-0.5,3.3-1.8,2.5-2.3
		c-5.2,1.6-8.5,5.4-12.9,6.2c-2,1.3-1.1,1.4-1.9,2.1c-1.9,1-3.7,1.8-4.1,1.5c4.3-2.5,0.6-1.9,6.2-4.6c-0.9-0.1-5.4,2.2-7.5,3.1
		c0.5-0.5-0.3-0.5-1.7-0.1c1.2-1.1,4.3-3.1,5.8-4.2c-0.5,0.5,0.7,0.2,0.3,0.5l5.5-3.6c2-0.5,2.6-0.4,1.8,0.4
		c3.3-1.4,8.5-4.8,8.9-3.9c4.1-2.1-1.6,0.2-2,0.1l0.3-0.2l-4.4,2.2c-0.9-0.7,5.2-2.2,5.4-3.4c-0.1-2.1,6.5-2.5,9.5-4.2l-3,3l3-1.8
		c-1.6,1.3-1.2,2.2-3.7,4c4.3-2,10.7-4.6,13.3-6.1c1.3-0.1,1.9,0.1,1.7,0.7c4-2.8,6.9-2.8,10.7-4.6c3.7-2.4-4.3,1.3-1.7-0.7
		c1.3-0.3,3.4-1.5,4.4-2.2c-1.1,0.8-5.5,2.4-8.5,3.6c2.2-1,1.6-1.5,2.1-2l-3.7,1.6c-0.1-0.9,4.4-2.2,5.9-3.4
		c-0.7,1.2-0.1,0.9-0.9,2.1c3-1.8,7.7-4,10.5-4.9c1.7-0.5-1.2,1-1.9,1.6c0.9,0.1,3-1.8,3.9-1.5c-0.3,0.6-1.9,1-2.9,1.6l9.2-4.2
		c0.1,0.3-2.1,1.4-3.6,2c2.9-1,4.9-2.1,7.7-4.6c3.3-1.2,7-2.6,6.2-1.6c1.4-0.9,0.3-0.6,0.1-0.9c4.3-1.9,4.3-3.1,6.8-4.3l-2.2,0.4
		c4.3-1.4,0.6-1.3,4.3-2.6c-0.3,0.8,0.2,1.3,1.1,1.6c0.3-0.8,2.9-1.4,4.4-2.2c-1.2-0.1,3.1-2.1,0.4-1.4c3.4-2.1,5.4-2.2,7.8-4.2
		c-1.8,0.6,2.9-2,1.2-1.7c3.5-1.7,6.2-2.2,5.5-1.2c-1.2,0.5-3.3,1.2-2.9,1.6l6.3-3.1c1.7-0.5,3.8-1.3,4.3-0.8c1.7-1.7,6.2-2.4,7.4-4
		c-1.9,1.6-3.9,1.7-4.8,2l0.9-0.6c-0.1,0.1-0.3,0.1-0.5,0.2l2.2-2.4c-2.8,0.8-0.1,0.9-3.9,2.7c-3.7,0.6,6.6-5,3-4
		c-2.9,1-2,1.7-4.1,3.2l0.6-0.3l-5,2.9c-0.4-0.2,1-1.2,1-1.2c-6.3,3-7.5,2.9-14.3,6c0.5-0.1,2.4,0.3-0.6,1.9c-2,1.3-2.6,0.8-4.4,1.6
		c1-0.6,1.7-1.7,3.3-2l-0.5-0.7c4.6-3.3,1.7-2.7,8.4-6.2c0.1-0.7,4.9-3.3,8.7-4.9l-2,0.4c3.4-2.7,1.1,0.4,5.6-2.7
		c2.5,0,6.8-0.7,4.4,1.4c3.6-1.4,4.5-2.5,7.7-4c2.3-0.1-0.6,1.3,0.2,1.9c2.2-1.2,5-2.9,3.1-2.5l4.5-1.8c0.2,0.1-1.4,0.9-2,1.1
		c1.8-0.6,4.8-2.6,5.6-3.3c-0.3,0.2-1.4,0.9-1.9,1c1.7-1.1,4.8-3,4.9-3.3c-2.5,1.7-3.1,0.9-5.6,2.7c0.1-0.3,0.4-1,1.9-1.6
		c-2.5,0.6-4.7,1.8-6,1.7c2.1-0.5,3.1-1.7,3.4-2c-1.8,0.7-5.2,2.5-6.2,3.2c-0.7-0.8-6.7,3.4-4.8,1.4c-0.2,0.5-2.7,1.7-4.2,2.1
		c-0.1-0.4,3.2-2.2,4.4-3.4c6.5-3.6,0.2,0.7,1.9,0.2l5.1-2.5c-0.6,0.1,1.8-1.6-1.6,0.1c1.3-1.3,4.4-3.2,7.2-4.1
		c0.5-0.5-1.4,0.4-2,0.7c0.5-0.5,3.3-3-1-1.1c1.2-0.5-1.8,1.4,0.5,0.7c-1.6,0.9-6.4,2.7-4.8,1.4l-7.3,4.2c-0.7-0.2,1.4-0.9,2.1-1.4
		l-5.8,3.1l1.9-0.4c-4.5,1.8-6.7,4.1-10.1,6.1c0.1-0.9,3-2.4,5.1-3.8c-2.6,0.2-1.2,1.1-4.9,2.7c-0.5,0.1-0.7,0-0.6-0.3l-2.6,2
		c-0.9,0.3-0.5-0.1-0.1-0.3c-4.6,3.1,0.6,0.9-5.9,4.4c4.1-1.6,3.1-2.1,6.5-3.6c2.2-0.4-3.4,2.7-4.2,3.5c-3.3,1.4-4.2,0.5-8,3
		c2.7-1.7-0.2-0.7,3.9-2.7c2.1-1.4-1.4,0.3-2,0.1c-1,0.6,1.1,0.4-2,1.7l0.1-0.2l-4.6,3.1c-4.8,1.8-9.9,5.8-13.5,6.5l1.1,0.4
		c-2.9,1.4-6.9,3.4-8.9,4.5c0.3-0.6,2.2-1.6,4.2-2.7c-5.2,2.4-9.6,5-12.8,7.2c2.8-0.7,3.1-0.9,5.7-1.7c-2.9,2.6-4.3,1.3-8.4,3.8
		c-0.5-0.7,1-1.2-0.4-1.4c-1.6,1.3-4.6,2.7-6.5,4.1c-1.4-0.2,0.2-1.7,4.6-3.9c3.7-1,6.9-3.9,9.9-4.6l-1.9,0.4
		c3.3-1.8,5.4-2.7,8.1-4.4l-0.1,0.2l1.1-1.4l-1.6,0.7c0.9-0.9,3.8-3.1,4.8-3.6c-4.8,2.4-4.6,3.7-6.5,5.4c-4.4,2-6.6,1.6-9.2,3.6
		c-0.4-0.2-3,0.6-1.2-0.7c2.3-1.3,4.2-1.7,4.2-2.3c-2.5,1.2-1.7,0.5-5.5,2.4c-0.4,1-3,3-5.5,4.8c-2.7,1.7-6.5,3.5-8.9,4.4
		c2.9-1.4,5.5-3.4,4.5-3.5c-1.4,1.5-5.9,2.2-4.6,2.7c-3.4,1.5-9,4.3-9.8,3.7c3-1.8,6.4-2.8,9-4.3c-0.7,0.3-1.6,0.5-1.2,0.1l4-1.8
		c-3.2,1.1-2.7,0.5-6.5,2.4c0.3-0.1,0.8-0.2,0.5,0.1l-3.1,1.5l-0.5-0.7c-2.7,1.7-8.7,3.5-13.7,6.5l0.4-0.4c-4.3,1.9-4,3.4-8.5,5.8
		c1.2-1,0.4-1,0-1.2c-2.1,1.4-3.6,1.4-6,2.3c2.9-0.9-1.4,1.6,0.6,0.9c0.5,0.6-4.2,2.9-6.7,4c-1.9-0.2,7.2-4.1,3.1-3.3
		c-2.4,1.1-2.8,1.9-1,1.2c-3.1,1.3-7.7,3.4-10.1,3.9c-3.3,2.4-4.9,2.7-6.7,4.7c1.9-1,1.7-1.7,4.3-2.5l-2.3,1.9
		c-3.5,1.7-6.5,2.4-9,3.5l2.4-1.5l-0.1,0.2c0.8-0.8,4.2-2.1,3.5-2.5c-2,1.7-4.1,2-6.9,3.9l0.1-0.2c-0.6,0.4-1.2,0.7-1.9,1l-1.4,0.7
		l-1.7,0.8c-2.2,1-4.3,1.9-6.3,2.7c-4,1.7-7.8,3.4-9.7,5.2c0.9-0.4,2.4-1,3.6-1.4c1.2-0.4,2.1-0.6,1.7-0.2c-1.8,0.6-5,2.1-7,2.9
		c0.6,0.6,0.9,1,0.6,0.9l-1.3-1l0.6-0.3l-0.7,0.3c4.1,3.7,6.7,6,8.5,7.4c1.9,1,1.1-0.2,4.5,2.4c3.6,3.3,2.7,2.9,1.2,2.1
		c-1.4-0.8-3.3-2-0.6,0.6l4.1,3.2L68,375l0.6,1.1c2.9,2.8,5.8,5,8.8,7.2c1.5,1.1,3,2.2,4.5,3.3c0.8,0.6,1.6,1.2,2.4,1.8l0.8,0.7
		l1,0.9l2.1,1.8c0,0.2-0.6,0-1.5-0.6c-0.4-0.3-1-0.7-1.6-1.1c-0.6-0.4-1.3-1-1.6-1.2c-1.5-1.1-3.1-2.4-4-3c0.8,1.1,2.1,2.2,3.4,3.2
		l0.5,0.4l0.9,0.8l2,1.7c1.3,1.1,2.6,2.3,3.9,3.6c0.6,0.5,1.2,1,1.7,1.5c2.3-1.3,4.2-2.5,5.4-3.4c1.2-0.9,1.7-1.4,1.2-1.4
		c3.5-2.1,3.5-2,4-2c0.3,0,0.3,0.3,0.6,0.2c0.8-1.4,5.5-3.6,8.3-5.4l0.4,0.4l4.3-3c-1.2,0.6-0.4-0.4-0.5-0.6l1.2-0.6
		c-5.1,1.3-9.6,6.3-14.9,7.5c1.3-0.9-0.7-0.1,0.6-1.1c1.2-0.6,1.5-0.7,1.7-0.6c0.5-0.7,2.2-2.1-0.2-0.7c-0.4-1,4.7-3.4,7.9-5.6
		c3-0.9-2.3,2.4-3.5,3.6c1.2-0.8,2.1-1.7,4.1-2.5l-0.1,0.9c4.5-2.9,1-1.3,1.7-2.5c0.8-1.6,4.2-2.3,5.5-3l-1.3,0.9
		c3.8-1.7,4.2-2.9,7.5-4.6l1.8-0.3c-4.5,1.6-4.5,3.7-7,4.6c6.3-2.6-0.5,2.1-2.1,3.7c2.5-1.5,4.9-2.7,6.5-3.1c3.3-2.9,8-4,11.1-7
		c2.1-1-1.5,1.4,0.6,0.3c3.9-2,7.9-4.4,11.8-7c2.1-1.1,1.9-0.6,2.7-0.7c10.4-5.2,13.5-8.9,24.8-14.6l-1.4,1.3
		c2.4-1.2,4.4-2.2,5.3-3.3c1.8-0.2,4.2-1.8,6.7-3.3c1.2-0.8,2.5-1.6,3.8-2.2c0.6-0.3,1.2-0.6,1.8-0.9c0.3-0.1,0.6-0.2,0.9-0.3
		c0.1,0,0.3-0.1,0.4-0.1c0,0,0.1,0,0.1,0.1c0.5-0.1,0.6-0.5,1-0.9c0.3-0.5,0.7-1.1,1.4-1.6c-0.2,0.5-0.8,1.4-0.5,1.4l0.5-0.4
		c0.1,0.5,0.2,1.2,0.2,1.9l0.1,0.6l0,0.3l0,0.1l0,0.6l0.1,4.9l0.3,20.9c-0.1-0.1-0.2-0.9-0.3-1.3c-0.1,10.3,1.2,20.4,0.8,28.9
		c0.2,1.6,0.4,6.4,1,4.9c0.1-2,0.7-2.3,1.2-2.1c0.6,7.6-1,3.7-0.8,8.8c-1,1.6-0.7-3.2-1.6-3.2l0.7,7.3c-0.3,4.1,0.3,8.3-0.2,11.9
		c0.1-1.6-0.8-0.5-0.4-3.2c0,0.4,0.1,0.1,0.2,0.5c0.1-6.1-0.5-3.3-0.7-8.8c0.3,4.8,0.5,11.3,0.3,15.6c0.7-0.9,0.3,3.5,0.7,4.7
		l-0.1,0.3c0.3,0,0.5,2.7,0.6,3.5l-0.9,1.1c0.1,1.9,0.4-0.5,0.6,1.3c0.2,2.7,0.3,12.1-0.6,12.8c0.1,3.2,0.6,4.1,0.5,7.5
		c-0.2-0.3-0.3-1.1-0.4-1.2c-0.2,7.1,0.1,15.7-0.4,22.4c0.2,5.5,0.4,10.1,1,13.6c-0.1-1.5,0.1-5.7,0.6-3.1c0.4,1.5,0.2,3.7,0.4,6
		c-0.5-0.5-0.4,5.7-0.8,1.2c-0.2,0.3-0.4,1-0.4,2c0,0.5,0,1,0,1.6l0,1.9c0.1,3.7,0.1,7-0.4,7.3c0.2,0.8,0.2,3.8,0.2,7.1
		c0.1,3.3,0.2,6.7,0.4,8.1c-0.4,1.6-0.3-5.1-0.6-4.7l0.1,4.6l-0.3,0.5c-0.1,4.4,0.1,6.8,0.3,8.3c2.2-2.5,3.8-4.6,5.9-6.7l-0.2,0.4
		l2.6-2.7l-3.5,4.4c4.4-4.3,6.7-7.4,11-11.7l0.5-0.1l2.6-2.8c-0.4,0.5-0.5,0.7-0.2,0.5c0.6-0.8,1.3-1.7,2.2-2.6l2.3-2.4
		c1.3-1.3,2.6-2.7,3.1-3.6c1.2-1,2.9-1.2,4-3.2l0.4,1c-3.8,3.7-1.9,0.9-5.8,5c1.4-0.7,3.4-2.2,5.7-4.2c1.1-1,2.3-2,3.5-3.1l2.4-2.2
		l3-2.8l0-9.1c-0.6-6.3,0.5-16.5-0.9-19.2l0.6,0.7l0.6-10.5c-0.2-8.9,0.4-18.1-0.4-24.9l0.5-1.9c-1.6-7.1-0.5-24-2.4-28.7
		c0.5-4,0.7,1.2,1.1,1.6c0.2-2.9-1-7.9-0.1-10.7c0.3,0,0.2,4.1,0.4,2.3c0.6-2.1-0.5-3.1,0.1-5.5c-0.6,1.1-1.2-3.9-1.3-7.5
		c0,0.7,0,0.7-0.1,0.9c-0.4,0.5-0.3-2.1-0.4-3.6c0,0,0.1,0.1,0.2,0.5c-0.6-18.5-0.8-39.7,0-59.2l0.4,3.6c-0.3-2.8,0-7.7,0.1-9.3
		l0,0.4c0.9-5.2-0.8-5.9,0.2-9.9l0.1,0.8c0-6.3,1-10,0.6-16.1c0.4-4.8,0.8-4.3,1.3-7.6c0-2.8-0.5-4.1-0.7-4.3l-0.1,1.3
		c-0.5,1.5-0.4-2.9-0.6-4.9c-0.8,1.5-2.1,0.7-3,6.3c0.2,4.1-1.4,4-1.3,8.7c1.1,2.7-0.9,6.7,0.1,10.9c-0.7-2.3-0.5,5.1-1.3,1.3
		c-0.6,1.7,0.6,9.1-0.2,12.4c-0.2-0.5-0.3-0.4-0.4-1.2c0.4,4.7-0.6,3.2-0.6,6.7l0.8-0.1c0.2,1.3-0.3,1.7-0.2,2.9
		c0.1-0.9,0.5-2.9,0.8-1.9c0.2,1.6,0.4,2.9,0.4,4.7c-0.3,0-0.4-1.2-0.5-2c0,0-0.1,3.7-0.5,4c-0.2-1.3-0.2-3.1-0.7-4.3
		c-0.3,4.9-0.3,0.4-0.9,2.8c0.9-0.7,0.4,4.3,0.5,6.9c-0.4,0.3-0.1-1.9-0.4-2.5c-1.7,5.1,0.2,7.6-0.2,14.1c-0.1-0.1-0.2-0.9-0.2-1.3
		c0.2,3.1-0.6,5.2-0.1,7.2c-0.2,2.9-1.1,0.5-1.1,5.1c1-1.3-0.2,5.3,0.8,5.5l-0.6,3.5c0.5,3.1,1.7-0.8,1.8,5.2
		c-0.4,5.5-1.7-0.5-2.2,2.7l0.5,1.3l-0.4,2.7l0-0.4c0.2,1.6,0,4.5-0.3,4.5c-0.2-0.3-0.2-2-0.4-2.3c0.5,2.7-1.5,10.5,0,13.3
		c-0.3,1.6-0.3,4.8-0.8,4.4c0.7,1.4-0.3,7.1,0.1,9.2c-0.2-0.3-0.6,1.7-0.4,3.3c0.3-2.1,0.5-0.8,0.9,0.7c-0.5,1.9-0.1,7.2-0.9,8
		c0.4,2.9,1,1.9,1.6,2.5c-0.5,1.9-0.5,7.9-1.4,6.8c0.1-1.6,0.3-5.2-0.3-4.5c-0.4,3.1,0.2,1.3,0.3,3.9c-0.2-0.2-0.6,1.7-0.9,1.2
		c0.1,1.5,0.1,3.6-0.1,5.7c0.4-3.3,0.6,2.1,1,0.1l-0.6-3.2c0-3.9,0.5-0.8,0.8-2.3c0.1,6.8,1.1,5.5,1.5,11.9c-0.2,1.2-0.4,3.3-0.5,4
		c0-2.1-0.9-1.7-1.1-0.5c0.7,3.6-0.5,6.4-0.7,9.3c0.2-2.5,0.8-1.2,1-0.3c0.5,6.1-0.3,2.4-0.8,5.1c0,9.5-1.2,15.4-0.6,23l0.8-3.6
		l-0.7-1.2c0.6-2.8,1.7,0.5,2.1,2.1c-0.3,0.4-0.2,5.1-0.6,3.2l0.3,4.5c0.3-0.7,0.2-3.6,0.5-1.5c-0.2,1.5-0.4,6.1-0.9,3.2
		c0,0.6,0,1.2,0,1.9l0,0.9c0,0.1,0,0.2,0.1,0.3c0.1,0.4,0.3,0.7,0.5,0.6c0,0.4,0,0.5-0.1,0.6c-0.1,0-0.1,0-0.2-0.1
		c-0.3-0.3-0.8-1.1-0.9-1.4c-0.1,0.9-0.7,0.5-0.9,0.3l0,0.3l-0.3,0.3c0-0.2-0.3-0.4-0.4-0.6c-0.1,0-0.1,0-0.2,0.1c0,0,0,0.1,0,0.1
		c0,0,0,0,0,0l-0.1,0.2l-0.3,0.3c-0.8,0.9-1.5,1.6-2.6,2.2l-0.3,1.2l-5.7,4.6c-0.6,0.5-1.3,1.1-2.1,1.8c-0.3,0.3-1,0.9-0.9,0.8
		l-0.2,0.1c0.1,0.1,0.2,0.2,0.3,0.3c-0.1,0.7-0.4,0.7-0.5,0.4c-0.2-0.2-0.2-0.6-0.4-0.1c-0.4,0.7-0.9,1.6-1.6,3.2l0,0
		c-0.3,0,0.2-1.1,0.4-1.8c-0.2,0.2-0.5,0.4-0.7,0.2c-0.2-0.2-0.3-0.7,0-1.2c0.2,0.3,0.4,0.5,0.5,0.7c0.4-0.6,0.4-0.9,0.4-1.2
		c0-0.3-0.1-0.6,0.1-0.9c-0.1-0.1-0.2-0.1-0.4-0.3c0,0,0,0-0.1-0.1l-0.1-0.4l-0.1-0.8l-0.3-1.8c-0.4-2.5-0.7-5.2-1.1-7.1
		c-0.6,1.7-1.5,1.1-2.1-2.4c0.5,0.5,0.5-4.7,0.8-7.1c0.4,1.2,1.1-5.3,1.3-0.3c-0.2,1.5-0.9,2.1-0.6,4.1c0.5-1.2,1-4.4,1.4-7.7
		c0.2,0.3,0.5,2,0.5,3.7C209.2,481.9,209,482.5,208.8,482.6z"/>
	<path fill="#FBB354" d="M209.1,378.7c0-0.3-0.1-0.7-0.2-0.8C208.9,378.2,209,378.5,209.1,378.7z"/>
	<path fill="#FBB354" d="M180.8,333c0.1,0,0.1,0.1,0.2,0.1C181.1,333.1,181,333,180.8,333z"/>
	<polygon fill="#CC6024" points="11.7,360.5 202.9,260.1 233.7,274.4 62.5,368.1 163.9,436.2 168.4,467.6 	"/>
	<path fill="#CA6329" d="M216.1,319.9c-0.9,0.6-1.7,1.1-2.1,1.5C215.4,320.6,215.9,320.1,216.1,319.9z"/>
	<path fill="#CA6329" d="M119.1,311.8c-0.1,0.1-0.1,0.2-0.1,0.3C119,312,119.1,311.9,119.1,311.8z"/>
	<path fill="#CA6329" d="M92.8,423.6c0.2,0.1,0.5,0.3,0.7,0.4C93.3,423.9,93,423.7,92.8,423.6z"/>
	<path fill="#CA6329" d="M196.4,287.8c5-3.3-1.6-0.3-1.1-1.2c-1.3,0.9-4.3,2.4-2.7,2c-3.3,0.5-8,5.1-11.4,5.9
		c-0.1,0.2,1.8-0.4-0.1,0.9c-3,1.8-3,1.2-4.4,1.7c-0.8,0.8-5.3,3.5-4.9,3.1c-1.9,1.4,2.7-0.2,0.1,1.8c-1.6,1.7-4.5,2.6-6.7,4
		c-3,1,2.5-1.8,3.6-2.7l-7.6,4.5c-2.5,0.9,0.7-1.2,3-2.4c-3.3,1.3-7.1,3.8-7.7,4.9c-2,0.9-3,1.6-4.9,2.4c1.6-1.3,1-2.2,3.8-3.9
		c4.7-2.5-1.3,1.7,2.8-0.4l0-0.8c1.9-0.6,3-1.8,4.8-2.8c1.1-0.4-0.1,0.3-0.7,0.8c3.3-1.9,6.1-3,8.2-5c-4.7,1.9-11,6.3-13.3,6.7
		l-8.4,5.6c0.1,0.3,3.5-1,1.2,0.8c-1.4-0.1-4.2,1-7.7,2.8c1.7,0-5.1,3.6-3.1,3.3c1.4-1.2,2.5-1.1,2.8-1.1c-3.3,1.9-0.1,0.9-1.9,1.9
		c-6.1,3.1,0-0.6-6.1,2.4c1.1-1,3.9-3.5,7-5.6c-0.4-0.2-3.3,1.8-4.8,2.2c2.2-0.7-1,1.4,0.7,0.7c-4.6,2.9-9.8,6.7-15.5,10.1
		c0.3-1.6,9.3-6.2,6.8-6.4c-2.7,1.7-2.5,2.2-4.8,3.4c-2.3,0.4-6.7,3.6-10.6,5.7l1.9-0.6c-1.3,1.1-4.2,2.4-5.9,3.2l0.4-0.4l-1.6,1.1
		c-0.3,0.1-0.4,0.1-0.4,0.1c-1.7,1.4-6.6,3.6-10,5.8c0.3,0.5,3.5-1.9,5.3-2.8c0.5-0.1,3.9-1.7,2.5-0.5c-4.4,2.4-7.1,4.7-12.2,7.5
		l1.7-0.7c-1.4,1.2-3.6,2.2-6,3.6c-4.5,2,2.8-2.5,0-1.3c1.4-1.4,4.7-2.5,4.8-3.4l-3.1,0.8c-2,1.7-4.9,2.4-6.4,3.4l1.9-0.6
		c0,0.8-1.8,1.2-2.7,1.6l1.6,0.2c2.6-1.2,3.9-2.9,6-3.4c-4.3,2.7-2.9,2.8-8.2,5.7c-0.4-0.2,1-0.7,1.4-1.2c-1.9,0.8-3.5,2.5-6.6,3.9
		c1.6-1.1,4.1-3,1.7-2.2l-1.2,1.5c-1.4,0.6-1,0.1-1.6,0.4c-2,0.9,0.8,0.4-2.4,1.9c-0.5,0.1-1.6,0.6-1.2,0.2c-5.6,3-2.6,1.7-7.4,4.7
		c4.7-2.6,5.4-1.7,1.3,0.7c-4.2,2.2-7.1,4.1-10.2,5.6c1.3,0.9,2.3,1.8,3.2,2.7l3.3,1.7c-2.6-0.9,3.4,2.6,5.2,3.9
		c0,0.4-2.3-1.1-4.7-2.7c-2.4-1.6-5.1-3.2-6.1-3.2c4.1,2.9,1.8,1.8-0.2,0.8c2.5,1.6,3.3,1.9,3.7,1.9c0.5,0,0.7-0.2,2,0.3
		c-0.4,0.1,7.5,5.2,4.3,3.8c2,1.4,3.3,2,4.4,2.6c0.6,0.3,0.9,0.4,1.3,0.6c0.4,0.2,0.7,0.4,1.2,0.7c-0.4,0.1-1,0.2-1,0.6
		c0.4-0.1,2.5,1.8,3,2.1c-0.3-0.4,1.2,0.1-1.1-1.2c0.9-0.1,5.1,3.4,5.2,2.9c-0.1,0.7,4.6,3.2,6.7,5c0.7-1.5-4.5-2.3-4.6-3.9
		c3.3,1.6,10.1,6.8,15.4,9.4c4,3.1-0.3,0.5,0.2,1.6c-4-2.4-4.7-3.4-8.2-5.4c3.5,2.7,9.6,6.6,12.6,8c4,2.6,3.5,4.3,8.6,7.2
		c-0.4-0.9-0.2-0.9-1.6-2.1c1.4,0.7,2.8,1.9,4.2,2.8c1,0.3-1.9-1.8,0.2-0.7c0.7,0.6,2.3,1.7,1.8,1.8l-0.3-0.2
		c4.9,2.7,2.7,3.3,7.2,5.1c-0.2-0.4-1.2-0.7-2.1-1.5c-0.5-0.8,2.2,0.4,4.2,1.5c-0.5,0.1,1.6,1.1,2.8,2.1c0.5,1.1-3.3-2-4.2-2.1
		l3.5,2.5l-0.7-0.6l4.2,2.1c-2.8-1.7-0.9-1.5,0.3-0.7c2.6,1.9,5.2,3.8,4.6,4.1c0.7-0.3,4,1.9,6.5,3.4c-2.5-1.9,0-0.7,0.9-0.4
		l3.5,3.1c-4.2-2.6,0.5,1.1-0.7,0.8c-1.6-0.2-3.8-2.2-5.9-3.7c3.5,3.8,6.3,3.4,9.6,6.4c-0.2,0.2-0.7,0.3-2.3-0.8
		c0.5,0.6,3.7,1.8,5.9,3.7c-0.5-0.6-1.6-2.1,1-0.6l2.8,2.8c1.8,1.3,2.3,1.4,2.7,1.3c0.2,0,0.4-0.1,0.7,0c0.2,0,0.5,0.1,1.1,0.3
		l-0.4-0.6c-0.1-0.1-0.1-0.2-0.3-0.3l-0.4-0.4c0.1-0.1,0.4,0,0.7,0.1c0.2,0.1,0.5,0.2,0.7,0.4c0.5,0.3,1.1,0.7,1.6,1
		c0.1,0.3,0.2,0.4,0.4,0.4c0-0.2-0.1-0.4-0.1-0.5c-0.6-0.4-1.2-0.6-1.7-0.9c-0.3-0.1-0.5-0.2-0.8-0.4c-0.4-0.2-0.8-0.5-1.2-0.9
		c-0.2-0.5,0.5-0.2,1.4,0.4c0.8,0.5,1.6,1,2.2,1.2l0.5,0.4c0.1,1.7,0.1,2.3,0.1,2.9l0,3.3c-0.5,0.1-1.1-1.3-1.7-2.7l-0.1-0.3
		l-0.1-0.1c-0.1-0.1-0.1-0.2-0.2-0.2c-0.1-0.1-0.2-0.2-0.4-0.3c-0.3-0.1-0.5-0.1-0.9,0.1l0.2,0.7l0.4,1.9l0.7,4.2
		c0.6,3.4,0.6,3.6,0.5,4.3c0.6,1.7,1.6,2.6,2.2,2.6c0.3,1.2,0.3,1.6,0.2,2.1l-0.6-1.5c0.6,2.2,1.1,4.2,1.6,6.4
		c-0.6-0.4-1.3-0.8-2.2-1.4c-1.5-0.8-0.5,0.7,0.4,1.9l-2.2-1.3l0.4,0.4c-0.2,0.7-2.6-1.2-4.2-2.3c0-0.3,1,0.2,0.9-0.1
		c-0.7-0.6-1.5-1.2-2.3-1.7c-0.4-0.3-0.8-0.5-1.2-0.7c-0.4-0.2-0.9-0.5-1.3-0.7c0.1-0.1,0.5-0.1,1.2,0.1c0.6,0.2,1.1,0.4,1.8,1
		c0.1,0.2,0,0.2,0.2,0.4l2.5,1.2c-1.4-0.7-2.5-1.6-3.2-2.3c-0.3-0.4-0.5-0.7-0.6-0.9c-0.1-0.3-0.2-0.5,0-0.7
		c-4.2-2.4,2.8,2.8-2.1-0.2c-5.4-5.4-12-7.7-14.3-11.7c-3.1-1.6-6.9-3.4-11.5-6.4c-0.3,0.5-3.1-1.9-3.1-0.9
		c3.8,3.6,8.7,4.5,11.5,7.8c2.1,1.1,1.7,0.2,2.8,0.5c1.7,1.1,3.3,2.3,3.3,2.7c-4.2-2.4-1.9,0.5-6.9-2.9c0.4,0.9,4.5,3.5,6.3,4.8
		c-0.7-0.1-0.3,0.5,0.7,1.5c-1.6-0.5-4.7-2.1-6.4-2.8c0.7,0.1-0.2-0.7,0.3-0.5l-5.7-2.9c-1.4-1.4-1.6-2.1-0.5-1.7
		c-2.8-2.1-8.2-4.8-7.7-5.6c-3.8-2.4,0.9,1.3,1.1,1.7l-0.3-0.2l4,2.6c-0.2,1.2-4.4-3.3-5.5-2.9c-1.7,1.1-5.2-4.3-8.2-6l4,1.1l-3-1.7
		c1.9,0.7,2.4-0.1,5.2,1.1c-3.8-2.7-9.1-6.7-11.7-8.2c-0.7-1-0.9-1.7-0.2-1.8c-4.3-1.9-5.7-4.5-9.1-6.7c-3.8-2,3.1,3,0.2,1.8
		c-0.9-1-3-2.1-4-2.6c1.2,0.5,4.7,3.5,7.1,5.4c-1.9-1.3-2.1-0.6-2.8-0.8l3.1,2.3c-0.7,0.5-4-2.6-5.7-3.3c1.4,0,0.9-0.3,2.2-0.3
		c-3-1.7-7.1-4.5-9.2-6.5c-1.2-1.2,1.4,0.5,2.3,0.8c-0.4-0.9-3-1.6-3.1-2.5c0.7-0.1,1.7,1.1,2.8,1.7l-8-5.8c0.2-0.2,2.3,1.1,3.5,2
		c-2.3-2-4.2-3.1-7.6-4.2c-2.6-2.1-5.6-4.7-4.4-4.4c-1.4-0.7-0.7,0.1-0.8,0.3c-3.7-2.7-4.7-2.1-6.9-3.6l1.4,1.6
		c-3.3-3-1.4,0.2-4.3-2.4c0.9-0.1,1-0.8,0.8-1.7c-0.9,0.1-2.6-1.7-4-2.6c0.5,1.1-3.3-1.6-1.4,0.4c-3.5-1.8-4.5-3.5-7.3-4.5
		c1.4,1.2-3.1-1.4-2.1-0.2c-3.1-2.1-4.9-4.1-3.7-4.1c1.1,0.8,2.6,2.2,2.8,1.7l-5.7-3.8c-1.2-1.2-3-2.6-2.8-3.3
		c-2.2-0.6-5-4.1-6.9-4.3c2.3,0.8,3.3,2.5,4,3.1l-0.9-0.5c0.1,0.1,0.3,0.2,0.4,0.3l-3.1-0.7c2.1,2,0.9-0.3,4.2,1.9
		c2.3,2.9-7.5-3.1-4.8-0.5c2.3,2,2.4,0.8,4.7,1.9l-0.5-0.4l4.9,2.8c0,0.5-1.6-0.2-1.6-0.2c5.6,3.8,6.1,4.9,12,9.1
		c-0.4-0.4-0.9-2.2,1.9-0.5c2.1,1.1,1.9,1.8,3.5,2.9c-1-0.5-2.2-0.6-3.3-1.8l-0.3,0.7c-5-2.3-3.1,0-9.4-4c-0.6,0.3-5.2-2.5-8.4-4.9
		l1.3,1.5c-4-1.5-0.2-1.1-5-3.4c-1.2-2.1-3.9-5.4-0.9-4.4c-3-2.3-4.3-2.6-7.1-4.5c-1.2-1.9,1.4-0.2,1.5-1.1
		c-2.1-1.3-4.9-2.8-3.6-1.3l-3.7-2.9c0-0.2,1.4,0.7,1.9,1.1c-1.4-1.2-4.5-2.8-5.6-3.1c0.3,0.2,1.4,0.7,1.7,1.1
		c-1.7-0.9-4.9-2.5-5.2-2.5c2.6,1.2,2.3,2.2,5,3.4c-0.3,0-1,0.1-2.2-0.8c1.7,1.8,3.8,3.1,4.4,4.2c-1.5-1.5-2.9-1.8-3.3-1.9
		c1.4,1.2,4.6,3.2,5.8,3.7c-0.3,1,6.1,4,3.5,3.4c0.5-0.1,2.8,1.4,3.8,2.4c-0.3,0.3-3.5-1.6-5-2.1c-6.3-3.7,0.5-0.5-0.7-1.7l-4.6-3.1
		c0.4,0.4-2.2-0.7,0.8,1.3c-1.7-0.4-4.9-2.1-6.9-4.1c-0.7-0.1,1,1,1.6,1.4c-0.7-0.1-4.2-1.3-0.5,1.4c-1-0.8,2.1,0.9,0.3-0.7
		c1.6,0.9,5.4,4,3.5,3.4l7.1,4c0.2,0.7-1.4-0.7-2.3-1.1l5.4,3.4l-1.2-1.4c3.7,2.9,6.8,3.6,10.1,5.5c-0.9,0.3-3.5-1.4-5.7-2.4
		c1.4,2.1,1.6,0.5,4.7,2.8c0.4,0.4,0.4,0.6,0,0.7l2.9,1.2c0.7,0.6,0.2,0.4-0.2,0.2c4.9,2.3,0.5-1,6.6,2.8c-3.3-2.7-3.3-1.6-6.3-3.7
		c-1.4-1.6,4,1.5,5,1.8c2.8,2.1,2.5,3.3,6.4,5.3c-2.8-1.4-0.5,0.5-4.2-1.9c-2.3-1.1,0.9,1,1.1,1.7c1,0.5-0.2-1.1,2.4,0.8l-0.2,0
		l4.9,2.3c3.8,3.1,9.7,5.5,12,8.2l-0.2-1.1c2.6,1.7,6.3,4.2,8.2,5.3c-0.7,0.1-2.4-1-4.3-2.1c4.5,3.3,8.9,5.6,12.3,7.2
		c-1.9-2-2.3-2.2-4.2-4c3.6,1.1,3.1,3,7.3,5.2c-0.3,0.7-1.6-0.2-1,1c1.9,0.7,4.5,2.6,6.6,3.4c0.5,1.3-1.5,0.7-5.5-2
		c-2.6-2.6-6.6-3.9-8.7-6.1l1.2,1.4c-3.1-1.9-4.9-3.2-7.6-4.7l0.2,0l-1.7-0.2l1.4,0.9c-1.2-0.3-4.5-1.7-5.4-2.2
		c4.4,2.8,5.4,2,7.8,2.8c3.8,2.7,4.6,4.9,7.5,6c0,0.5,1.9,2.2,0,1.4c-2.2-1.3-3.5-2.7-4-2.4c2.3,1.5,1.2,1.2,4.7,3.5
		c1-0.1,4,1.1,6.7,2.3c2.8,1.5,6.1,3.7,8,5.3c-2.6-1.7-5.6-2.9-5.2-2c1.9,0.4,4.7,3.9,4.5,2.6c3,2.1,8,5.5,7.8,6.5
		c-3-1.7-5.5-4-8-5.5c0.6,0.5,1.2,1.1,0.7,1l-3.5-2.5c2.4,2.2,1.8,2,5.2,4.3c-0.2-0.2-0.5-0.6-0.2-0.4l2.8,1.9l-0.3,0.7
		c2.8,1.4,7.2,5.6,12.2,8.4l-0.5-0.2c3.7,2.7,4.8,1.6,9,4.2c-1.4-0.5-1,0.1-1,0.6c2.3,1.1,3,2.3,4.9,3.9c-2.1-2,2.1,0.4,0.5-1
		c0.3-0.7,4.5,2.1,6.6,3.7c0.7,1.7-7-4.1-4.3-1c2.1,1.5,2.9,1.4,1.5,0.2c2.6,1.9,6.6,4.8,8.2,6.6c3.6,1.6,4.7,2.8,7.3,3.3
		c-1.7-1.1-2.2-0.6-4.2-2.4l2.8,1c3.1,2.1,5.2,4.3,7.3,5.8L146,461l0.2,0c-1-0.3-3.8-2.4-3.8-1.8c1.2,0.4,2.1,1,3.1,1.7
		c0.5,0.3,1,0.7,1.6,1.1c0.3,0.2,0.6,0.4,0.9,0.6l1.5,0.9l-0.3,0c4.5,2.7,8.1,5.6,11.7,8.2c3.5,2.6,6.7,4.9,8.9,5.5
		c-0.8-0.5-2.1-1.6-3-2.4c-1-0.9-1.6-1.5-1.2-1.4c2.1,1.8,7.1,5.2,7.4,5.8l-1.6-0.9l6.5,4.6c-0.2-1.7-0.4-3-0.7-4.1
		c-0.9-2.5-1.2-1.7-2.1-6.1c-0.5-4.5,0-3.3,0.6-1.4c0.6,1.9,1.3,4.3,1,1l-2-10.4l0.2-1.8c-0.4-3.1-0.8-6.2-1.3-9.2l-0.4-2.2
		l-0.2-1.1l-0.1-0.6l-0.5-2.3l-1.1-4.6l-0.3-1.2l-0.4-2.1l-0.8-4.3c-1.6-1-3.1-2-4.7-3.1c0.1-0.4,2.5,0.9,5.5,2.6
		c0.3,1.6,0.6,3.3,0.9,4.9l0.5,3c0-0.4,0.1-0.7,0-1.1c-0.1-0.7-0.2-1.5-0.3-2.2c-0.2-1.6-0.5-3.2-0.8-4.9c-1.3-0.8-2.7-1.7-4-2.6
		c-0.7-0.4-1.3-0.9-2-1.4c-0.3-0.3-0.7-0.5-1-0.8c-2.6-1.9-5.1-2.7-4.9-2c-3.5-2-2.1-2-2.5-2.4c-1.6,0-5.6-3.1-8.4-4.7l0.1-0.5
		L144,415c1.1,0.8-0.2,0.5-0.3,0.7l-1.1-0.8c3.4,3.9,9.8,5.4,13.1,9.5c-1.4-0.7,0.2,0.7-1.2-0.1c-1-0.8-1.2-1-1.2-1.2
		c-0.9-0.1-2.8-1-0.5,0.5c-0.7,0.8-5.1-2.5-8.4-4.3c-2.1-2.2,3.1,0.9,4.7,1.4c-1.2-0.7-2.4-1-4-2.4l0.8-0.4
		c-4.5-2.5-1.5-0.2-2.9-0.3c-1.7,0-3.8-2.6-5.1-3.4l1.4,0.7c-3.2-2.5-4.4-2.3-7.3-4.4l-1.1-1.5c3.4,3.2,5.2,2.2,7.2,4
		c-5.1-4.3,2.1-0.5,4.1,0.1c-2.4-1.5-4.5-3-5.6-4.2c-4-1.5-7-5.2-11-6.4c-1.8-1.3,1.9,0.6,0-0.7c-3.5-2.5-7.3-4.9-11.4-7
		c-1.9-1.3-1.4-1.4-1.8-2c-9.1-6.7-13.8-7.6-23.8-14.8l1.7,0.7c-2.1-1.5-3.9-2.9-5.2-3.1c-1-1.5-3.4-2.8-5.9-4.3l-1.8-1
		c-0.2-0.1-0.3-0.2-0.4-0.2c-0.3-0.2-0.4-0.5-0.2-0.7c-0.2-0.3-0.6-0.3-1.1-0.5c-0.5-0.1-1.2-0.2-1.9-0.4c0-0.1,0-0.2,0.2-0.3
		c0.5,0.1,1.3,0.3,1.9,0.1c0.4-0.4,1-0.8,1.6-1.2l0.1-0.1l0.5-0.3l1.1-0.6l2.2-1.3l4.4-2.5l18.7-10.6c-0.1,0.2-0.7,0.6-1,0.8
		c8.8-4.7,16.8-10.5,24.3-14.2c1.3-0.9,5.2-3.4,3.7-3.2c-1.7,0.9-2.3,0.4-2.4,0c6.2-4.1,3.6-0.9,7.9-3.4c1.9,0.1-2.4,2.1-2,2.9
		l5.9-4c3.7-1.6,6.9-4.1,10.2-5.3c-1.4,0.6-0.1,0.9-2.5,1.8c0.3-0.2,0.1-0.2,0.4-0.4c-5.3,2.8-2.6,2-7.2,4.7c4-2.5,9.4-5.7,13.2-7.6
		c-1.1-0.2,2.8-1.9,3.6-2.8l0.3-0.1c-0.1-0.3,2-1.7,2.7-2.1l1.3,0.3c1.5-1-0.7-0.1,0.9-1.1c2.2-1.4,10.2-5.9,11.2-5.4
		c2.7-1.6,3.2-2.4,6.1-3.9c-0.1,0.3-0.7,0.8-0.8,0.9c6.1-3.1,13.4-7.4,19.3-10.1c4.5-2.7,8.5-5.1,11.1-7.2c-1.2,0.7-5,2.6-2.9,0.9
		c1.1-1,3.1-1.9,4.9-3.1c-0.2,0.7,5.1-2.3,1.4,0.1c0.7,0.2,2.8-1,4.7-2.1l1.4-0.8c0.5-0.3,0.7-0.4,1.4-0.8c1.1-0.6,1.9-0.9,2.1-0.7
		c0.6-0.5,3.2-2,6-3.6c2.8-1.6,5.7-3.3,6.9-4.2c1.5-0.3-4.3,2.7-3.9,2.8l3.9-2.3l0.5,0.1c4.5-2.3,6.4-3.7,7.7-4.7
		c-2.4-0.8-4.5-1.4-6.7-2.4l0.4,0.1l-3.3-1.4l5.1,1.5c-5.4-2.4-9-3.2-14.4-5.6l-0.3-0.4l-3.4-1.3c0.6,0.2,0.8,0.2,0.5,0
		c-0.4-0.1-0.9-0.2-1.4-0.4l-1.5-0.5c-0.8-0.3-1.6-0.6-2.5-0.9c-1.7-0.7-3.3-1.3-4.4-1.5c-1.4-0.8-2.2-2.2-4.3-2.4l0.7-0.7
		c4.8,2.1,1.5,1.4,6.6,3.4c-0.9-0.8-2.5-1.8-4.4-2.9l-1.5-0.8l-0.8-0.4l-1-0.5l-5.6-2.7l-7.1,3.7l-4.4,2.4c-5.1,3.4-14.4,7.1-16,9.6
		l0.3-0.8l-9.3,4.3c-7.6,4.2-15.7,8-21.2,11.8l-1.8,0.4c-5.3,4.6-20.3,11.4-23.4,15.3c-3.6,1.4,0.7-1.2,0.9-1.7
		c-2.6,1.2-6.3,4.5-9.1,5c-0.1-0.3,3.4-2.1,1.7-1.4c-2.1,0.5-2.4,1.9-4.7,2.4c1.2,0-2.7,2.9-5.8,4.6c0.6-0.3,0.6-0.3,0.9-0.3
		c0.7,0.2-1.7,1.3-2.9,2c0,0,0.1-0.2,0.4-0.4c-15.6,9-33.7,18.9-50.7,27.2l2.9-2c-2.3,1.6-6.6,3.6-8,4.2l0.3-0.2
		c-4.9,1.6-4.6,3.4-8.6,4.3l0.6-0.4c-5.4,2.9-9,3.7-14.1,6.9c-4.3,1.9-4.1,1.2-7.1,2.4c-2.4,1.3-3.3,2.4-3.3,2.5l1.2-0.6
		c1.5-0.2-2.3,1.7-3.9,2.8c1.6,0.1,1.6,1.6,6.8-0.2c3.4-2.1,4.1-0.6,8-2.9c1.8-2.2,6.1-2.3,9.3-5.1c-1.6,1.7,4.6-1.9,1.7,0.5
		c1.8-0.2,7.5-4.7,10.7-5.5c-0.4,0.4-0.2,0.5-0.8,0.9c3.8-2.5,3-1,6-2.5l-0.5-0.6c1-0.8,1.6-0.5,2.6-1.2c-0.9,0.3-2.7,0.9-2,0.2
		c1.3-0.9,2.3-1.7,3.8-2.5c0.2,0.3-0.8,0.9-1.5,1.4c0,0,3.3-1.6,3.7-1.4c-1,0.8-2.5,1.6-3.3,2.5c4.3-2,0.5,0,2.8-0.5
		c-1-0.5,3.5-2.3,5.7-3.7c0.4,0.2-1.6,0.9-2,1.5c5.1-0.9,6.4-3.7,12.2-6.3c-0.1,0.2-0.7,0.6-1,0.8c2.5-1.6,4.8-1.8,6.2-3.2
		c2.6-1.2,0.9,0.7,4.8-1.4c-1.6-0.2,4.7-2.2,4.3-3.2l3.3-1c2.4-1.9-1.5-1.1,3.6-3.9c4.9-2.1,0.3,1.7,3.3,0.7l0.9-1.1l2.5-0.9
		l-0.3,0.2c1.3-0.9,3.9-2.1,4-1.8c-0.1,0.3-1.6,1.1-1.7,1.4c2-1.7,9.7-3.5,11.4-6.1c1.5-0.5,4.3-1.9,4.1-1.3c0.9-1.2,6.2-3,7.8-4.4
		c-0.1,0.3,1.8-0.2,3.1-1.1c-2,0.7-0.9-0.1,0.2-1.1c1.8-0.4,6.2-3.2,7.3-2.8c2.3-1.7,1.1-1.7,1.4-2.5c1.8-0.4,7-3.2,6.5-1.9
		c-1.4,0.6-4.6,2.1-3.7,2.3c2.8-1.1,1-0.8,3.2-2.1c-0.1,0.2,1.7-0.3,1.4,0.2c1.2-0.8,3-1.7,4.9-2.5c-3.1,1.1,1.5-1.5-0.4-1l-2.4,2
		c-3.3,1.8-0.9-0.1-2.3,0.4c5.8-3.2,4.2-3.5,9.5-6.8c1.1-0.4,3.1-1.1,3.7-1.4c-1.8,1-1.1,1.6,0.1,1.2c2.7-2.3,5.7-2.5,8.3-3.7
		c-2.3,1-1.4-0.1-0.7-0.7c5-3.2,2.2-0.8,4.7-1.7c8.1-4.4,13.8-6.1,20-10l-3.5,0.9l-0.7,1.2c-2.7,0.8-0.3-1.7,0.8-2.9
		c0.5,0,4.4-2.2,3-1l3.8-2.3c-0.7,0-3.2,1.5-1.5,0.2c1.4-0.5,5.5-2.4,3.2-0.7c2.1-1.1,4.6-2.7,3.9-2.8c0.4-0.2,0.8-0.4,0.9-0.4
		c0.1,0,0.2,0,0.2,0c0.1,0.1,0.1,0.2,0,0.4c-0.6,0.6-1.7,1.6-2.4,2.1c2.7-1.3,2.6-0.6,1.9,0c1.7-0.9,1.3-0.7,1.6-0.9
		c-0.1,0.3,0,0.6,0,0.8c0.1,0.1,0.2-0.1,0.3-0.2c0.1-0.1,0.3-0.1,0.3,0.3l0.1-0.1c0,0,0-0.1,0.1-0.1l0.2,0l0.6-0.1l6.2,3.4
		c0.7,0.4,1.4,0.7,2.3,1.2l1.6,0.8l0.8,0.4l0.1,0.1c0.1-0.1,0.1-0.3,0.1-0.5c0.6-0.2,0.7,0.1,0.6,0.3c-0.1,0.2-0.4,0.4,0.1,0.5
		c0.5,0,1,0.1,1.8,0.2c0.3,0,0.7,0.1,1.3,0c0.1,0.3-0.9,0.3-1.6,0.4c0.2,0.1,0.4,0.3,0.3,0.6c-0.1,0.3-0.5,0.6-1.1,0.6
		c0.3-0.4,0.3-0.7,0.5-0.9c-1.1-0.2-1.1,0.4-2,0.5c-1.7,1.3-7.1,5.3-10.1,7.7c1.8-0.3,1.6,0.8-1,2.9c0.2-0.7-4.2,1.8-6.4,2.6
		c0.8-0.9-5.1,1.5-0.9-1c1.4-0.5,2.2-0.2,3.8-1.4c-1.2,0.2-4.2,1.2-7.3,2.4c0.1-0.3,1.4-1.4,2.9-2.2
		C195.7,287.8,196.2,287.7,196.4,287.8z"/>
	<path fill="#CA6329" d="M107.6,336.1c-0.2,0.2-0.6,0.5-0.5,0.6C107.3,336.5,107.6,336.3,107.6,336.1z"/>
	<path fill="#CA6329" d="M106.4,443.5c0-0.1,0-0.2,0-0.3C106.3,443.1,106.3,443.2,106.4,443.5z"/>
	<polygon fill="#F6902C" points="201.4,519.9 11,392.8 8,359.7 171.7,474.6 178,353.9 204.7,340.2 	"/>
	<path fill="#F6902C" d="M205,512.2l0-2C205,510.4,205,511,205,512.2z"/>
	<path fill="#F6902C" d="M204.3,514l0,0.2C204.3,514.2,204.3,514.1,204.3,514z"/>
	<path fill="#F6902C" d="M9.6,399.3c0,0.1,0,0.2,0.1,0.4C10,399.8,10,399.7,9.6,399.3z"/>
	<path fill="#F6902C" d="M205.1,488.9l-0.1,0.9C205.2,490,205.2,489.1,205.1,488.9z"/>
	<path fill="#F6902C" d="M106.7,448.5c0.1,0,0.2,0,0.3,0C106.9,448.5,106.8,448.5,106.7,448.5z"/>
	<path fill="#F6902C" d="M209.6,416.9c0-0.3,0-0.6-0.1-0.8C209.5,416.4,209.5,416.7,209.6,416.9z"/>
	<path fill="#F6902C" d="M27.7,380.9c-5.2-3,0.4,1.6-0.6,1.6c1.4,0.8,4.1,2.8,3.1,1.6c1.9,2.7,8.1,4.9,10.4,7.6
		c0.2,0-1.2-1.4,0.9-0.3c2.9,1.9,2.4,2.2,3.5,3.2c1,0.3,5.5,3.2,5,3c2.1,1.1-1.4-2.3,1.6-0.9c2.2,0.6,4.3,2.9,6.6,4.2
		c2.3,2.2-2.8-1.5-4-2l7.4,4.8c1.9,1.8-1.4-0.1-3.5-1.6c2.6,2.4,6.6,4.7,7.8,4.8c1.7,1.4,2.8,1.9,4.3,3.4c-1.9-0.9-2.4,0.1-5.2-1.7
		c-4.3-3.1,2.1,0.4-1.6-2.3l-0.7,0.3c-1.4-1.4-2.9-1.9-4.7-3.1c-0.9-0.8,0.3,0,1,0.3c-3.1-2.1-5.4-4.1-8.1-5.2
		c3.8,3.4,10.6,7.2,12,9.1l8.8,5.1c0.2-0.2-2.4-2.7,0.2-1.4c0.5,1.3,2.8,3.3,5.9,5.7c-0.7-1.5,5.5,3,4.3,1.3c-1.7-0.7-2.1-1.8-2.2-2
		c3.1,2.1,0.9-0.3,2.6,0.8c5.5,4.1-0.5,0.3,4.9,4.4c-1.4-0.5-4.9-1.9-8.1-3.8c0,0.5,3.1,2.1,4.2,3.4c-1.6-1.6,1.7,0.2,0.3-1
		c4.7,2.9,10.4,5.8,15.9,9.5c-1.6,0.4-9.7-5.7-8.8-3.3c2.8,1.7,3.1,1.2,5.2,2.8c1.4,1.9,6.2,4.5,9.9,7l-1.4-1.4
		c1.6,0.7,4,2.7,5.5,3.9l-0.5-0.2l1.7,0.9c0.2,0.2,0.3,0.3,0.2,0.3c2,0.9,6.2,4.3,9.7,6.5c0.3-0.5-3.3-2.3-4.8-3.5
		c-0.4-0.4-3.3-2.8-1.6-2.1c4.1,2.9,7.4,4.3,12.1,7.6l-1.4-1.2c1.7,0.7,3.6,2.3,5.9,3.8c3.8,3.2-3.5-1.4-1.2,0.6
		c-1.9-0.7-4.3-3.1-5.2-2.8l2.1,2.5c2.4,1.1,4.3,3.4,5.9,4.3l-1.4-1.4c0.7-0.3,1.9,1.1,2.6,1.7l-0.5-1.5c-2.2-1.8-4.3-2.2-5.7-3.9
		c4.3,2.7,3.8,1.4,8.8,4.9c0,0.5-1-0.6-1.7-0.7c1.6,1.4,3.8,2,6.4,4.2c-1.7-0.9-4.5-2.4-2.8-0.6l1.9,0.5c1.2,1,0.5,0.9,1,1.2
		c1.7,1.4,0-0.9,2.8,1.3c0.3,0.4,1.2,1.2,0.7,1.1c3.3,2.3,1.7,0.9,5,2.8c-2.8-1.9-2.2-2.9,0.7-1c2,1.5,3.8,2.6,5.3,3.6l1.1,0.8
		c0.4,0.3,1,0.7,1.5,1.1c1,0.8,1.9,1.6,2.9,2.5l2.6,1.3c-1.7-0.4,3.7,2.9,5.6,4.3c0.5,0.8-1.8-0.8-4.1-2.4c-2.3-1.6-4.8-3.2-5-2.6
		c4.2,3.1,2.4,2.3,0.9,1.6c2.4,1.6,2.9,1.7,3,1.4c0.1-0.3-0.1-0.8,0.8-0.4c0,0.4,7.6,5.5,5.3,4.6c3.1,2.2,3.9,2.2,5.3,3.1
		c0-0.7,0-1.3,0.1-2c0.2,1,0.6,2.3,0.9,2.6c-0.2-0.9,0.3-5,0.4-6c-0.2,0.7-0.5-2.5-0.5,2c-0.2-1-0.1-3.4,0-5.7
		c0.1-2.3,0.2-4.4,0-4.5c0.3,0.1,0.5-2.2,0.6-4.9l0.2-4.3l0.1-1l0-0.6c0-0.4,0.1-0.8,0.1-1.1c-0.4,0-0.6,0.4-0.6,0.9
		c0,0.2,0,0.5,0,0.9l0,1.5c0.1,2.1,0.2,4.6-0.5,4.9c-0.1-1.5,0-3.3,0-5.5l0.2-4.9c0.1-3.3,0.3-7,0.1-9.9c0.6-5,0.6,0,1.2-1
		c0,4.7-0.5,5.8-0.4,9.9c0.5-4.4,0.7-11.7,0.4-15c0.2-4.8,1.8-5.3,1.8-11.1c-0.5,0.8-0.7,0.6-0.9,2.4c-0.1-1.6,0.2-3.4,0.3-5.1
		c-0.3-1.1-0.5,2.6-0.7,0.2c0.1-0.9,0.3-2.9,0.6-2.5l0,0.4c-0.2-5.6,1.4-4,0.7-8.8c-0.3,0.4,0,1.4-0.2,2.6c-0.4,0.9-0.8-2.1-0.9-4.4
		c0.3,0.4,0.2-1.9,0.4-3.5c0.6-1,0,3.9,0.3,4.7l0.3-4.3l-0.1,0.9l-0.3-4.7c0,3.3-0.8,1.5-0.8,0.1c0.3-3.2,0.6-6.5,1.2-6.1
		c-0.6-0.4-0.4-4.5-0.4-7.3c-0.4,3.1-0.6,0.4-0.7-0.6l0.9-4.7c-0.1,5,0.6-1,1,0.2c0.6,1.5,0.1,4.4-0.1,7c1.5-5-0.3-7.2,0.5-11.6
		c0.3,0,0.6,0.4,0.5,2.4c0.2-0.8-0.4-4.1,0.1-7c-0.2,0.8-0.9,2.4-1-0.6l0.9-3.9c0.4-4.5-0.7-1.6-0.9-5.4l-0.6,2.4
		c-0.6-0.4,0.3-5.1-0.5-5.2c-0.1,2.3,0.3,3.7,0,6.1c-0.7,0.9-0.2-3.1-0.5-4.6c0.6-5.1,0.5-4,1.3-7.8c1.1-0.1,1,6.3,2.5,5.6l0.1-5.7
		l0-0.7v-0.2v-0.1l0-0.6c0-0.4,0-0.8,0-1.1c0.6-0.3,1.1-0.5,1.5-0.5l0.2-0.2l0.1,0l0.1-0.1l0.3-0.2c0.3-0.2,0.6-0.4,0.8-0.6
		c0.4-0.4,0.7-0.7,0.8-0.9c0.2-0.5-0.2-0.7-0.7-0.8c1.6-0.9,2.4-1.3,3.5-1.7l-1.7,1.3l6-3.6c1.1-0.7,2.3-1.4,3.9-2.2
		c1.8-1.1,1.6-1.8,1.3-2.2l2.5-1.4l-0.3,0c0.5-0.6,1.3-1.2,2.2-1.7c0,1-0.1,2.3-0.1,3.3c-0.3,0.4-0.4-0.7-0.5-0.4
		c-0.3,2-0.3,4.2,0,5.4c-0.2,0.1-0.4-0.1-0.6-0.4c-0.2-0.4-0.3-0.9-0.2-1.9c0.1-0.3,0.2-0.3,0.3-0.5l-0.4-2.5c0.2,1.4,0,3-0.2,4
		c-0.3,1.1-0.6,1.7-1,1.9c0.2,1.3,0.4,0.7,0.5,0c0.2-0.6,0.4-1.3,0.5,0.6c-0.4,1.5-0.5,2.2-0.6,4.3c-0.1,1.8-0.1,3.4-0.1,5
		c0,3.2-0.1,5.9-1.2,8c0.4,3.5,1,7.7,0.9,13.2c0.6,0,0.2,3.7,0.9,3.1c0.9-5.2-1-9.8,0.2-13.9c-0.2-2.3-0.8-1.6-1.1-2.6
		c0-2.1,0.1-4,0.5-4.3c0.3,4.8,1.4,1.3,1.3,7.4c0.5-0.8,0.4-5.7,0.6-7.9c0.3,0.7,0.6,0,0.9-1.4c0.5,1.6,0.8,5.1,1.2,6.9
		c-0.3-0.6-0.5,0.5-0.6,0l0.7,6.4c-0.4,2-0.9,2.5-1.2,1.4c-0.2,3.5,0.5,9.5-0.5,9.5c0.1,4.6,0.6-1.4,0.8-1.8l0,0.4l0-4.8
		c1.1-0.5-0.4,5.5,0.6,6.3c1.9,0.8-0.7,6.8-0.5,10.2l-1.3-3.9l0.2,3.4c-0.5-2-1.4-2-1.9-5c-0.1,4.7-0.7,11.3-0.5,14.3
		c-0.5,1.2-0.9,1.7-1.4,1.1c0.8,4.7-0.6,7.3-0.7,11.3c0.4,4.3,0.8-4.3,1.4-1.2c-0.4,1.3-0.1,3.6,0,4.8c-0.2-1.3,0.3-5.9,0.6-9
		c-0.1,2.3,0.6,2.1,0.9,2.8l0.2-3.9c0.8,0.3,0,4.8,0.4,6.6c-0.7-1.2-0.8-0.5-1.5-1.7c0.2,3.4,0.1,8.5-0.4,11.3
		c-0.3,1.7-0.3-1.4-0.5-2.4c-0.5,0.8,0.2,3.4-0.4,4c-0.5-0.5,0-2.1-0.1-3.3l-0.4,9.9c-0.3,0-0.3-2.5-0.2-4c-0.4,3-0.3,5.2,0.7,8.7
		c-0.4,3.4-0.9,7.3-1.3,6.1c0.2,1.6,0.5,0.5,0.8,0.5c-0.2,4.6,0.8,5.1,0.8,7.8l0.6-2.1c-0.7,4.4,0.9,1,0.4,4.9
		c-0.6-0.6-1.2-0.4-1.9,0.2c0.6,0.7,0,3.1,0,4.8c0.6-1,0.5,3.6,1.1,0.9c0.4,3.9-0.4,5.7,0.3,8.6c0.2-1.8,0.5,3.4,1,1.8
		c0,3.8-0.8,6.4-1.4,5.3c0.1-1.3,0.4-3.4-0.1-3.3l0,6.9c-0.3,1.7-0.5,3.9-1.2,4.2c0.7,2.2-0.7,6.5,0.2,8.2c-0.5-2.4,0.3-4.2,0.4-5.1
		l0.1,1.1c0-0.2,0-0.3,0-0.6l1.1,3c0.5-2.9-0.8-0.5-0.7-4.6c1.2-3.5,1.5,8,2.2,4.3c0.4-3-0.7-2.5-1-5l0,0.6l-0.4-5.6
		c0.4-0.3,0.6,1.4,0.6,1.4c0.1-6.8,0.7-7.8,1-15.1c-0.2,0.5-1.3,1.9-1.4-1.3c-0.2-2.3,0.4-2.6,0.6-4.5c0.1,1.2,0.7,2.2,0.3,3.8
		l0.8-0.1c0.9,5.5,1.7,2.6,1.8,10.1c0.6,0.4,0.8,5.7,0.5,9.8l0.6-1.9c0.9,4.2-0.8,0.8-0.1,6.1c-1.1,2.2-2.4,6.2-3.2,3.2
		c-0.3,3.8,0.2,5.1,0.1,8.5c-0.9,2.1-0.9-1.1-1.8-0.7c0,2.5,0.4,5.6,0.9,3.8l-0.4,4.7c-0.2,0.1-0.2-1.6-0.1-2.2
		c-0.2,1.8,0.1,5.3,0.4,6.4c0-0.4-0.2-1.6,0-2.1c0.2,2,0.6,5.5,0.8,5.7c-0.4-2.9,0.6-3.1,0.1-6.1c0.2,0.3,0.7,0.8,0.5,2.3
		c0.6-2.5,0.5-4.9,1.1-6c-0.5,2.1,0.1,3.4,0.2,3.9c0.2-1.9,0.1-5.6-0.1-6.9c1-0.3,0-7.3,0.9-4.8c-0.3-0.4-0.3-3.1-0.1-4.6
		c0.4,0.1,0.6,3.8,1,5.4c0.3,7.3-0.7-0.1-1.1,1.6l-0.1,5.6c0.2-0.6,0.6,2.2,0.6-1.4c0.6,1.7,0.9,5.2,0.4,8.1
		c0.3,0.7,0.3-1.4,0.3-2.1c0.3,0.7,1.2,4.2,1.5-0.4c-0.1,1.3-0.4-2.2-0.8,0.1c-0.1-1.8,0.4-6.8,0.9-4.8l-0.5-8.2
		c0.5-0.5,0.2,1.6,0.4,2.5l-0.1-6.4l-0.5,1.8c0.4-4.7-0.7-7.7-1-11.5c0.8,0.5,0.8,3.7,1.1,6.1c1-2.3-0.5-1.6-0.2-5.5
		c0.1-0.5,0.3-0.7,0.6-0.4l-0.6-3.1c0.1-0.9,0.3-0.4,0.3,0c-0.7-5.4-1.1,0.1-1.3-7.1c-0.5,4.3,0.5,3.7,0.3,7.3
		c-0.6,2.1-0.9-4.2-1.2-5.2c0.2-3.5,1.4-3.9,0.9-8.3c0.3,3.1,0.7,0.1,0.7,4.6c0.3,2.5,0.4-1.3,0.8-1.8c-0.1-1.2-0.8,0.8-0.7-2.5
		l0.1,0.1l-0.7-5.3c0.5-5-0.7-11.2,0.2-14.6l-0.8,0.8c0-3.1,0-7.6-0.1-9.8c0.5,0.5,0.5,2.6,0.6,4.8c0.2-5.6-0.2-10.6-0.7-14.3
		c-0.6,2.7-0.6,3.1-1,5.7c-1.1-3.7,0.8-4.3,0.3-9c0.8-0.1,0.6,1.4,1.4,0.3c-0.5-2-0.3-5.2-0.7-7.4c0.8-1.2,1.4,0.9,1.4,5.7
		c-0.7,3.6,0.4,7.7-0.3,10.7l0.5-1.8c0.2,3.7,0,5.9,0.3,9l-0.1-0.1l0.8,1.6l0-1.7c0.4,1.2,1.1,4.7,1.1,5.7c0-5.2-1.3-5.6-1.9-8.1
		c0.1-4.7,1.6-6.5,0.9-9.6c0.4-0.2,0.8-2.9,1.1-0.8c0.2,2.6-0.4,4.4,0.2,4.7c0-2.7,0.3-1.7,0.3-5.9c-0.7-0.8-1.3-3.9-1.8-6.9
		c-0.3-3.1-0.2-7.2,0-9.7c0,3.1,0.6,6.3,1.2,5.5c-0.7-1.8,0.7-6.1-0.3-5.2c0.1-3.6,0.2-9.8,1.1-10.2c0.3,3.5-0.3,6.8-0.2,9.7
		c0-0.8,0.3-1.6,0.5-1.1l-0.2,4.3c0.5-3.2,0.7-2.6,0.7-6.8c-0.1,0.3-0.2,0.8-0.3,0.4l0.1-3.4l0.8-0.1c-0.3-3.1,0.8-9.1,0.3-14.8
		l0.2,0.5c0.2-4.6-1.3-5-1.4-9.9c0.3,1.4,0.7,0.8,1.1,0.5c-0.3-2.5,0.3-3.8,0.6-6.3c-0.5,2.9-0.8-2-1.1,0.1c-0.8,0.1-0.7-5-0.6-7.6
		c1-1.5,0.4,8.1,1.5,4.2c0.1-2.6-0.4-3.3-0.6-1.4c0.2-3.3,0.4-8.2,1.1-10.5c-0.7-3.9-0.2-5.5-1.2-8c0,2.1,0.7,2.2,0.3,4.8l-0.7-2.9
		c0-0.9,0.1-1.8,0.1-2.7l0.1-1.4l0.2-2.1c0.2-2.8,0.5-5.4,0.5-7.8l0.2,4.9l-0.1-0.2c0.1,0.9,0.1,3,0.2,4.8l0,0.7c0,0.2,0,0.2,0,0.4
		c0,0.2,0,0.4,0.1,0.5c0.1,0.3,0.1,0.4,0.3,0.3c-0.1-0.3-0.1-0.6-0.2-0.9l0-0.2l0-0.4l0-0.8c0-1.1,0-2.2,0-3.3
		c0.1-2.3,0.2-4.8,0-7.6l0.1,0.2c-0.2-5.2,0.2-10.1,0.4-14.7c-3.5,1.6-6.9,3.3-10.1,5.7c0.9-0.5,2.1-0.9,2.9-1.2
		c0.8-0.2,1.2-0.2,0.6,0.3c-1.8,0.5-7.4,3.6-7.2,2.9l1.9-1.2c-5.3,2.6-8.6,4.2-10.5,5.3c-0.6,0.6-0.5,0.8-0.7,1.1
		c0,0.1-0.1,0.2-0.2,0.3c0,0.1-0.1,0.2-0.2,0.3c-0.2,0.2-0.5,0.4-1,0.8c-5.3,2.3,1.5-2.1-2.1-0.7l-4.5,2.9l-1.3,0.1l-0.7,0.3
		l-0.9,0.4l-2.7,1.4c-1.8,0.9-3.5,1.8-5.1,2.7c-0.1,2.5-0.1,5-0.1,7.4l0,1.8l0,1l0.1,2c0.1,2.7,0.2,5.4,0,8.5
		c-0.8,0.1-0.8-6-0.7-8.1c-0.8,2.6-0.1,6.4-0.7,9.9c-0.3,3.3,0.3,5.8,0.8,5.3c0.1,4-0.6,2.8-0.8,3.3c0.8,1.4,0.2,6.4,0.2,9.7
		l-0.5,0.1l0.3,5.1c0.1-1.3,0.5-0.1,0.8-0.1l-0.1,1.3c1.6-4.9-0.4-11.2,1.4-16.2c0.1,1.6,0.5-0.5,0.6,1.1c-0.1,1.3-0.2,1.6-0.4,1.7
		c0.4,0.8,0.6,2.9,0.7,0.2c1,0.2,0.5,5.6,0.6,9.4c-0.8,3-0.8-3.2-1.2-4.7c0,1.4,0.4,2.6,0,4.7l-0.7-0.6c0.2,5.2,0.6,1.5,1.3,2.7
		c0.9,1.5-0.3,4.7-0.3,6.1l-0.1-1.6c-0.5,4,0.2,5,0,8.6l-0.7,1.7c1-4.5-0.8-5.6-0.2-8.2c-1.1,6.6-1.5-1.5-2-3.6c0,2.9-0.2,5.5-0.7,7
		c0.8,4.2-0.8,8.7,0.2,12.8c-0.2,2.2-0.4-2-0.6,0.4c-0.3,4.3-0.4,8.8-0.2,13.4c-0.1,2.4-0.5,1.9-0.8,2.6c-0.5,5.7-0.4,9.6-0.2,13.7
		c0.1,2,0.1,4.1,0.1,6.5c0,1.2,0,2.4-0.1,3.7l-0.1,1.8c0,0.2-0.1,0.4-0.1,0.6c-0.1-0.2-0.3-0.4-0.4-0.5c-0.1,0.6-0.3,0.8,0.2,1.6
		c-0.4-0.1-0.5,0-0.5,0.3s0.1,0.9,0.2,1.4c-0.3,0-1-0.4-1.4-1.5c-0.4-0.4-0.6-0.3-0.9-0.2c-0.2,0.1-0.3,0.1-0.6,0.1
		c-0.1,0-0.1,0-0.2,0c-0.1,0-0.1,0-0.3-0.1c-0.4-0.2-0.8-0.4-1.2-0.7c0.2-0.2,1.6,0-0.2-1.3c-11.8-7.7-22.2-14.9-35-23.6
		c0.2,0,0.9,0.4,1.2,0.5c-8.1-5.9-17-10.5-23.6-15.6c-1.4-0.7-5.4-3.2-4.5-2c1.6,1.2,1.4,1.9,1,2.1c-6.4-3.8-2.4-2.9-6.6-5.6
		c-0.7-1.7,2.9,1.2,3.5,0.5l-6.2-3.6c-3.1-2.6-6.8-4.4-9.4-6.8c1.2,1,0.9-0.3,2.8,1.5c-0.4-0.2-0.2,0-0.5-0.2c4.9,3.5,3,1.5,7.5,4.4
		c-4-2.5-9.4-5.9-12.7-8.5c0.4,1.1-2.9-1.7-4.2-2l-0.2-0.2c-0.2,0.2-2.4-1.1-3.1-1.5l-0.3-1.3c-1.6-1,0.2,0.7-1.4-0.3
		c-2.2-1.3-9.9-6.6-9.9-7.7c-2.6-1.7-3.6-1.8-6.2-3.8c0.3,0,1,0.3,1.2,0.3c-5.5-4.1-12.6-8.7-17.7-12.9c-2.2-1.4-4.3-2.8-6.2-3.9
		c-1-0.6-1.9-1.1-2.7-1.6l-1.3-0.7L26,366c-0.1,0-0.2-0.1-0.4-0.2l-0.4-0.2l0.8,0.5l0.6,0.5c0.4,0.3,0.9,0.7,1.2,1
		c0.7,0.6,0.9,1-0.3,0.4c-0.3-0.1-0.7-0.3-1.1-0.5l-0.6-0.4l-0.7-0.4c-1.2-0.8-2.6-1.8-3.9-2.6c0.4,0-1.3-1.3-2.5-2.2
		c-1.1-0.9-1.7-1.4,1.1,0.4c-0.6-1.1-3.9-3.3-6.8-5.2c-2.9-2-5.6-3.8-6-4.7c-0.6-0.2-2.9-1.8-5.4-3.5c0.4,3.4,0.8,7.2,1.3,9.5
		c-0.4,0.2-0.8-5.9-1.2-6.4l0.6,4.9l-0.3-0.4c0.3,4.4,0.8,7.4,1.3,9.8c0.5,2.4,1,4.3,1.4,6.8l-0.1-0.2l0.5,3.4
		c-0.4-1.3-0.8-2.7-1.2-4.3c0.2,1.4,0.3,2.7,0.5,3.9l0.3,1.7l0.2,0.8l0.1,0.5c0.3,1.4,0.7,2.8,0.9,4.7l-0.2,0.4l0.5,2.3
		c-0.1-0.4-0.2-0.5-0.3-0.3c0.4,0.8,0.6,2,0.8,3.4c0.3,1.9,0.5,3.9,0.8,5.6c1.1,0.6,2,1.1,2.7,1.4c0.4,0.3,0.8,0.7,1.2,1l0.6,0.6
		l0.3,0.3l0.2,0.2c0.6,0.6,1.2,1.1,2.3,1.4l-0.9,0.6c-1-0.7-1.7-1.1-2.1-1.4c-0.5-0.4-0.9-0.7-1.2-1c-0.6-0.5-1-1-3.8-2.7l-0.1-1.1
		c0,0.4-0.1,0.8-0.1,1.3c0.6,0.6,1.4,1.2,2.3,1.9l1.4,1.1l1.4,1.1c1.4,1.1,3,2.2,4.6,3.4c3.3,2.3,7,4.7,10,6.7
		c5.4,2.9,13.2,9.3,16.2,9.6l-0.9,0.1l8.3,6.1c7.4,4.7,14.6,10,20.6,13l1.2,1.4c6.6,2.5,19.9,12.5,24.7,13.4c3,2.5-1.4,0-1.9,0
		c2.3,1.7,7,3.3,8.8,5.6c-0.2,0.2-3.5-2-2.1-0.8c1.4,1.6,2.8,1.2,4.4,3c-0.5-1.1,3.8,1.1,6.8,2.9c-0.5-0.4-0.5-0.4-0.7-0.6
		c-0.2-0.7,1.9,0.9,3.2,1.6c0,0-0.2,0-0.5-0.2c15.5,9.4,32.9,20.6,48.4,31.7l-3.1-1.6c2.5,1.2,6.3,4.1,7.6,5.1l-0.4-0.2
		c3.7,3.6,5.3,2.5,7.9,5.5l-0.7-0.4c5.1,3.4,7.6,6.2,12.9,9.1c3.7,2.9,3,3,5.5,5.2c2.3,1.5,3.7,1.7,3.9,1.7l-1.1-0.8
		c-0.9-1.2,2.6,1.2,4.4,2.1c-0.7-1.5,0.6-2.1-3.4-5.9c-3.5-2-2.5-3.3-6.4-5.7c-2.8-0.5-5-4.3-9-5.8c2.3,0.6-3.9-3.1-0.4-1.8
		c-1.1-1.4-7.7-4.4-10-6.8c0.5,0.2,0.5-0.1,1.2,0.3c-4-2.2-2.3-2.2-5.1-4.1l-0.3,0.7c-1.2-0.5-1.2-1.2-2.3-1.7
		c0.7,0.6,2.1,2,1.1,1.7c-1.4-0.7-2.6-1.2-4-2.2c0.2-0.3,1.2,0.3,1.9,0.6c0,0-3-2.1-3-2.5c1.2,0.5,2.6,1.5,3.8,1.7
		c-3.9-2.9-0.2-0.4-1.8-2.2c0,1.1-3.7-2-6-3.3c0-0.5,1.6,0.9,2.3,1c-3.2-4.1-6.3-3.9-11.4-7.7c0.2,0,0.9,0.3,1.2,0.5
		c-2.6-1.5-3.9-3.3-5.8-4c-2.3-1.7,0.1-1.2-3.6-3.6c0.6,1.5-4.2-3-4.9-2.3l-2.5-2.4c-2.8-1.2-0.3,1.9-5.2-1.3
		c-4.2-3.3,1.3-1.1-1-3.3l-1.4-0.3l-2-1.8l0.4,0.2c-1.4-0.7-3.7-2.4-3.5-2.7c0.3-0.1,1.8,0.9,2.1,0.8c-2.4-1-7.8-6.9-10.9-7.1
		c-1.1-1.1-3.8-2.8-3.2-3c-1.5-0.2-5.7-4-7.6-4.8c0.4,0-1.1-1.4-2.5-2.2c1.6,1.4,0.4,0.9-1,0.4c-1.3-1.4-5.8-4-6-5.1
		c-2.6-1.2-2.1-0.2-2.9,0c-1.3-1.4-6.2-4.6-4.8-4.8c1.2,1,4.1,3.1,3.9,2.2c-2.3-1.9-1.2-0.5-3.3-1.8c0.2,0-1.1-1.4-0.5-1.4
		c-1.3-0.7-3-1.9-4.6-3.2c2.5,2.2-2.1-0.6-0.7,0.8l3,1.2c3.2,2.1,0.4,0.9,1.4,1.9c-5.6-3.5-5.1-2-10.5-5.1c-0.9-0.8-2.5-2.2-3-2.5
		c1.8,1.1,1.9,0.2,1-0.6c-3.3-1.3-4.9-3.9-7.2-5.6c1.9,1.6,0.6,1.3-0.3,1c-5.3-2.9-1.8-1.6-3.7-3.4c-7.7-5-12-9.2-18.5-12.9l2.5,2.6
		l1.4,0c2,2-1.3,1.1-2.9,0.6c-0.2-0.4-4.1-2.9-2.3-2.2l-3.9-2.2c0.4,0.6,2.8,2.1,0.9,1.3c-1.1-1-4.8-3.7-2.2-2.4
		c-1.9-1.3-4.6-2.8-4.4-2.1c-3.2-2.1,0.9-0.6,2.4,0.1c-2.5-1.7-1.8-2-0.9-1.7l-3.5-2.2c0.9,0.3,1,0.1,1.9,0.4
		c-2.1-1.7-4.2-2.1-5.8-4l-1.2-0.1l-1.9-1.5l-0.4-0.3l0-0.1l-0.1-0.1c-0.1-0.1-0.1-0.2-0.1-0.3c0-0.1,0.1-0.2,0.1-0.3l0-0.1l0,0
		l0-0.5l-0.2-2.4l-0.4,1.2c-0.7-2.6-0.6-3.6-0.4-4.8c0.1-0.6,0.1-1.3,0.1-2.2c0-0.5,0-1-0.1-1.7l0-0.5c0-0.1,0-0.1,0-0.1l0,0
		c0,0,0-0.1-0.1-0.1c-0.3-0.4-0.6-1-1.4-1.6c-0.4-0.8,0.1-0.5,0.4-0.3c-0.2-0.3-0.4-0.8-0.7-1.4c-0.2-0.6-0.4-1.2-0.5-1.5
		c0.2,0.1,0.4,0.3,0.6,0.6c-0.1,0.1-0.1,0.1-0.2,0.2l0.4,1.2c0.4,0.5,0.4,0.4,0.4,0.2c0.2,0.2,0.5,0.3,0.8,0.7c0-0.4,0.7-1,2.9-0.3
		c-0.6-1.2-0.2-1.9,3.1-0.4c-0.7,0.1,3.5,3,5.2,4.6c-1.2-0.3,3.7,3.9-0.5,1.2c-1-1-1.2-1.9-3-2.8c0.7,1.1,3,3.3,5.4,5.5
		c-0.3,0-1.9-0.7-3.3-1.7C28.1,381.6,27.7,381.1,27.7,380.9z"/>
	<path fill="#F6902C" d="M205.1,488.9l0-0.5L205,489C205.1,488.8,205.1,488.8,205.1,488.9z"/>
	<path fill="#F6902C" d="M110.7,439.5c0.2,0.1,0.7,0.3,0.7,0.2C111.2,439.6,110.9,439.5,110.7,439.5z"/>
	<path fill="#F6902C" d="M177.1,484c-0.1,0-0.1-0.1-0.2-0.1C177,484,177,484.1,177.1,484z"/>
	<path fill="#F6902C" d="M199.8,493.4l-0.1-1.3C199.7,492.6,199.7,492.8,199.8,493.4z"/>
</g>
<g>
	<path fill="#3A2F2A" d="M332.7,314.3l-2.7,1.3C330.3,315.6,331.1,315.2,332.7,314.3z"/>
	<path fill="#3A2F2A" d="M335.6,314l0.2-0.1C335.8,313.9,335.7,313.9,335.6,314z"/>
	<path fill="#3A2F2A" d="M301,330l1.3-0.5C302.4,329.1,301.3,329.7,301,330z"/>
	<path fill="#3A2F2A" d="M301,330l-0.7,0.3l1-0.2C300.9,330.1,300.9,330.1,301,330z"/>
	<path fill="#3A2F2A" d="M310.7,334l-1.6,1C309.7,334.7,309.9,334.5,310.7,334z"/>
	<path fill="#3A2F2A" d="M289.8,327.3c-0.5,0.4-0.7,0.7-0.8,0.8C289.6,327.7,290,327.4,289.8,327.3z"/>
	<g>
		<path fill="#3A2F2A" d="M261.8,307h80.9v13.4h-26.6V482h-26.9V320.5h-27.5L261.8,307L261.8,307z"/>
		<path fill="#3A2F2A" d="M421.5,430c0-20.6-8.6-31-25.9-31h-12.9V482h-26.9V306.5h34.8c38.2,0,57.2,15.1,57.2,45.4
			c0,19-9.3,32.5-27.7,40.7c8.8,2.5,15.4,7,19.9,13.4c4.5,6.4,7.2,14.9,8.2,25.4V482h-26.6L421.5,430L421.5,430z M382.7,319.9v66.6
			h12.9c8.8,0,15.6-2.8,20.3-8.5c4.7-5.6,7.1-14,7.1-25.1s-2.5-19.4-7.4-24.8c-4.9-5.4-11.6-8.2-20-8.2
			C395.6,319.9,382.7,319.9,382.7,319.9z"/>
		<path fill="#3A2F2A" d="M466.2,306.8h24.5V482h-24.5V306.8z"/>
		<path fill="#3A2F2A" d="M546.8,306.8h15.5L604.6,482h-30.4l-8.8-35.6h-40l-8.8,35.6h-12.9L546.8,306.8z M528.4,433.8h33.9
			L545.6,364L528.4,433.8z"/>
	</g>
</g>
</svg>
