<?xml version="1.0" encoding="utf-8"?>
<!-- Generator: Adobe Illustrator 18.0.0, SVG Export Plug-In . SVG Version: 6.00 Build 0)  -->
<!DOCTYPE svg PUBLIC "-//W3C//DTD SVG 1.1//EN" "http://www.w3.org/Graphics/SVG/1.1/DTD/svg11.dtd">
<svg version="1.1" id="Ebene_1" xmlns="http://www.w3.org/2000/svg" xmlns:xlink="http://www.w3.org/1999/xlink" x="0px" y="0px"
	 viewBox="9 137.4 594 594" enable-background="new 9 137.4 594 594" xml:space="preserve">
<path fill="#3C2320" d="M9,137.4v594h594v-594L9,137.4L9,137.4z M464.2,348c-9.2,7.9-17.6,15.4-17.6,15.4s4.4,89.9-58.6,153.8
	s-163.6,68.6-216.4,49.3c-43.4-15.8-41.8-19.4-41.8-19.4s37.5,2.2,66.6-8.8s38.3-22,38.3-22s-23.4,0-43.6-18.5s-22-31.7-22-31.7
	s10.1,0.9,18.1,0.9s15-1.3,15-1.3s-34.8-7.5-48-33.9c-12.8-25.5-11.4-38.3-11.4-38.3s9.2,4.8,19.4,6.6s13.7,1.8,13.7,1.8
	s-24.7-15-30.4-45.4c-5.6-29.6,8.4-50.2,8.4-50.2s27.3,37.5,76.2,56.4S302,382,302,382s-13.4-54.3,37.9-81.1
	c49.8-26,86.8,15,86.8,15s11-1.8,26-8.4c15-6.6,19.4-10.1,19.4-10.1s-3.5,15.9-12.3,24.7c-8.8,8.8-21.2,15.4-19.8,15.4
	c1.3,0,13.7-1.3,24.2-4.4c10.6-3.1,18.1-6.2,18.1-6.2S473.4,340.1,464.2,348z"/>
</svg>
